<svg width="390" height="401" viewBox="0 0 390 401" fill="none" xmlns="http://www.w3.org/2000/svg">
<g clip-path="url(#clip0_247_7653)">
<path d="M365.941 310.371L160.911 192.028C157.511 190.064 151.957 190.068 148.558 192.028L32.7382 258.743C28.1283 261.4 28.1227 265.759 32.7278 268.418L236.287 385.913C239.283 387.643 244.185 387.643 247.185 385.906L365.94 317.504C369.339 315.544 369.342 312.334 365.941 310.371Z" fill="#EBEBEB"/>
<path d="M143.793 360.609L90.372 349.341L73.7305 362.589L143.793 360.609Z" fill="#429EBD"/>
<g opacity="0.15">
<path d="M143.793 360.609L90.372 349.341L73.7305 362.589L143.793 360.609Z" fill="white"/>
</g>
<path d="M143.792 360.608L94.8984 343.677L99.5492 331.015L143.792 360.608Z" fill="#429EBD"/>
<g opacity="0.15">
<path d="M143.792 360.608L94.8984 343.677L99.5492 331.015L143.792 360.608Z" fill="white"/>
</g>
<path d="M94.8984 343.677L97.6204 350.869L143.792 360.609L94.8984 343.677Z" fill="#429EBD"/>
<g opacity="0.2">
<path d="M94.8984 343.677L97.6204 350.869L143.792 360.609L94.8984 343.677Z" fill="black"/>
</g>
<path d="M88.8928 344.664C89.0035 344.642 89.1062 344.578 89.1791 344.475C89.3395 344.245 89.297 343.909 89.0821 343.723C88.6931 343.387 88.309 343.048 87.9264 342.707C87.7131 342.516 87.4099 342.548 87.2455 342.775C87.0819 343.001 87.1212 343.338 87.3337 343.527C87.7195 343.871 88.1085 344.213 88.499 344.553C88.6161 344.655 88.7597 344.691 88.8928 344.664Z" fill="#455A64"/>
<path d="M83.6185 340.039C82.8887 339.316 82.1749 338.584 81.4732 337.842C81.2767 337.633 81.2647 337.295 81.4459 337.086C81.6256 336.878 81.9351 336.878 82.1332 337.085C82.8254 337.818 83.5327 338.543 84.2529 339.257C84.4566 339.458 84.4791 339.797 84.3034 340.012C84.2321 340.101 84.1382 340.154 84.038 340.174C83.8944 340.203 83.7388 340.158 83.6185 340.039ZM78.0551 334C77.3902 333.205 76.7406 332.399 76.1102 331.584C75.9322 331.356 75.9522 331.019 76.1535 330.833C76.3532 330.645 76.662 330.68 76.8384 330.91C77.4608 331.714 78.1008 332.509 78.7576 333.292C78.9429 333.514 78.9357 333.851 78.7424 334.047C78.6742 334.115 78.5932 334.156 78.509 334.172C78.3494 334.204 78.1762 334.144 78.0551 334ZM73.0658 327.375C72.482 326.506 71.9125 325.62 71.372 324.74C71.2196 324.491 71.2742 324.161 71.4947 324.001C71.7161 323.843 72.0176 323.916 72.1708 324.165C72.7017 325.032 73.2631 325.905 73.8382 326.761C74.0002 327.003 73.9593 327.336 73.7459 327.505C73.6882 327.553 73.6216 327.582 73.5542 327.595C73.377 327.63 73.1837 327.549 73.0658 327.375ZM68.7968 320.176C68.31 319.234 67.8432 318.28 67.4117 317.338C67.289 317.07 67.3813 316.751 67.6202 316.627C67.8584 316.499 68.1528 316.617 68.2747 316.884C68.7005 317.81 69.1585 318.749 69.6373 319.675C69.772 319.935 69.6934 320.259 69.4616 320.398C69.4167 320.424 69.3686 320.444 69.3205 320.452C69.1192 320.492 68.9059 320.386 68.7968 320.176ZM65.3891 312.462C65.0242 311.477 64.6769 310.467 64.3577 309.459C64.2679 309.176 64.4002 308.877 64.6536 308.79C64.8991 308.706 65.1846 308.86 65.2736 309.142C65.5872 310.132 65.928 311.125 66.2865 312.092C66.3884 312.369 66.2713 312.677 66.0235 312.779C65.9962 312.79 65.9681 312.799 65.9401 312.805C65.7147 312.849 65.4805 312.708 65.3891 312.462ZM62.9566 304.347C62.7689 303.538 62.5949 302.723 62.4345 301.903L62.307 301.23C62.2549 300.941 62.4209 300.669 62.6799 300.618C62.6815 300.618 62.6847 300.617 62.6863 300.617C62.9494 300.57 63.2052 300.768 63.2582 301.059L63.3825 301.718C63.5405 302.525 63.7113 303.326 63.8966 304.12C63.9639 304.408 63.8075 304.693 63.5477 304.756C63.5413 304.757 63.5349 304.758 63.5284 304.76C63.275 304.809 63.0216 304.627 62.9566 304.347ZM62.0824 296.474C61.8162 296.498 61.5748 296.278 61.5427 295.984C61.4304 294.938 61.3398 293.873 61.2724 292.818C61.2532 292.523 61.4561 292.275 61.7231 292.267C61.991 292.258 62.2228 292.489 62.242 292.784C62.3086 293.823 62.3968 294.872 62.5075 295.899C62.5372 296.177 62.3696 296.421 62.129 296.468C62.1137 296.47 62.0977 296.473 62.0824 296.474ZM61.6117 288.095C61.343 288.081 61.1289 287.829 61.1329 287.533C61.1457 286.481 61.1866 285.416 61.2548 284.369C61.274 284.075 61.5042 283.864 61.7745 283.896C62.0423 283.929 62.2436 284.193 62.2252 284.486C62.1578 285.514 62.1177 286.558 62.1049 287.59C62.1025 287.843 61.9389 288.047 61.7223 288.089C61.6862 288.095 61.6486 288.097 61.6117 288.095ZM62.2284 279.779C61.9629 279.717 61.7857 279.434 61.8314 279.145C61.9918 278.117 62.1843 277.079 62.4008 276.059C62.461 275.773 62.7272 275.61 62.9839 275.684C63.2453 275.762 63.4081 276.056 63.348 276.341C63.1355 277.34 62.947 278.358 62.7898 279.366C62.7553 279.587 62.6013 279.747 62.4137 279.783C62.3527 279.794 62.2902 279.793 62.2284 279.779ZM64.0233 271.719C63.769 271.613 63.6335 271.304 63.7193 271.028C64.0273 270.042 64.3665 269.056 64.7258 268.097C64.8269 267.827 65.1116 267.711 65.3594 267.83C65.608 267.953 65.7275 268.269 65.6265 268.538C65.2736 269.478 64.9408 270.445 64.6384 271.411C64.5815 271.593 64.4419 271.714 64.2815 271.746C64.1981 271.763 64.1099 271.756 64.0233 271.719Z" fill="#455A64"/>
<path d="M357.91 187.458L328.309 157.846L345.61 191.02L357.91 187.458Z" fill="#429EBD"/>
<path opacity="0.15" d="M357.91 187.458L328.309 157.846L345.61 191.02L357.91 187.458Z" fill="white"/>
<path d="M328.309 157.846L363.111 184.175L375.41 180.612L328.309 157.846Z" fill="#429EBD"/>
<path opacity="0.15" d="M328.309 157.846L363.111 184.175L375.41 180.612L328.309 157.846Z" fill="white"/>
<path d="M363.111 184.175L358.152 193.604L357.91 187.458L328.309 157.846L363.111 184.175Z" fill="#429EBD"/>
<path opacity="0.2" d="M363.111 184.175L358.152 193.604L357.91 187.458L328.309 157.846L363.111 184.175Z" fill="black"/>
<path d="M358.151 193.605L353.809 188.646L357.908 187.458L358.151 193.605Z" fill="#429EBD"/>
<path opacity="0.2" d="M357.908 187.458L353.809 188.646L354.502 189.437L357.908 187.458Z" fill="black"/>
<path d="M364.113 191.999C364.007 191.998 363.9 192.038 363.813 192.12C363.621 192.302 363.598 192.622 363.762 192.836C364.059 193.22 364.352 193.605 364.642 193.992C364.803 194.209 365.09 194.237 365.285 194.057C365.479 193.878 365.506 193.559 365.344 193.344C365.052 192.953 364.756 192.564 364.457 192.176C364.368 192.059 364.242 192 364.113 191.999Z" fill="#455A64"/>
<path d="M368.128 197.269C368.668 198.075 369.192 198.887 369.702 199.705C369.845 199.935 369.793 200.251 369.586 200.41C369.381 200.569 369.094 200.511 368.95 200.282C368.447 199.474 367.927 198.67 367.395 197.874C367.244 197.649 367.287 197.332 367.49 197.165C367.572 197.097 367.669 197.064 367.765 197.064C367.903 197.066 368.04 197.136 368.128 197.269ZM372.148 203.902C372.615 204.763 373.066 205.631 373.497 206.503C373.618 206.748 373.537 207.057 373.315 207.191C373.095 207.328 372.816 207.237 372.695 206.992C372.27 206.13 371.826 205.275 371.365 204.427C371.235 204.187 371.305 203.875 371.52 203.731C371.596 203.681 371.678 203.658 371.76 203.658C371.913 203.658 372.063 203.745 372.148 203.902ZM375.526 210.971C375.903 211.885 376.265 212.812 376.6 213.728C376.695 213.987 376.582 214.283 376.348 214.388C376.114 214.494 375.848 214.369 375.753 214.11C375.424 213.208 375.068 212.294 374.696 211.395C374.591 211.14 374.691 210.84 374.92 210.723C374.983 210.69 375.049 210.674 375.114 210.675C375.286 210.677 375.449 210.787 375.526 210.971ZM378.13 218.435C378.404 219.398 378.657 220.369 378.88 221.322C378.945 221.592 378.799 221.87 378.554 221.94C378.31 222.014 378.06 221.849 377.997 221.579C377.776 220.642 377.527 219.687 377.258 218.741C377.182 218.474 377.316 218.189 377.556 218.105C377.603 218.089 377.651 218.08 377.697 218.081C377.89 218.082 378.068 218.22 378.13 218.435ZM379.84 226.216C379.993 227.196 380.125 228.196 380.232 229.189C380.262 229.468 380.083 229.72 379.832 229.753C379.589 229.785 379.354 229.588 379.325 229.311C379.22 228.336 379.09 227.352 378.94 226.39C378.897 226.115 379.064 225.851 379.312 225.803C379.339 225.798 379.367 225.795 379.394 225.795C379.61 225.797 379.801 225.97 379.84 226.216ZM380.572 234.185C380.594 234.969 380.602 235.756 380.597 236.545L380.589 237.193C380.584 237.471 380.379 237.691 380.129 237.689C380.128 237.689 380.125 237.689 380.123 237.689C379.87 237.683 379.67 237.452 379.676 237.172L379.684 236.54C379.689 235.763 379.681 234.989 379.658 234.22C379.65 233.94 379.848 233.705 380.1 233.696C380.107 233.696 380.112 233.696 380.119 233.696C380.363 233.697 380.564 233.912 380.572 234.185ZM379.905 241.636C380.156 241.664 380.338 241.914 380.313 242.191C380.221 243.181 380.105 244.184 379.97 245.174C379.933 245.451 379.698 245.642 379.449 245.6C379.2 245.558 379.028 245.3 379.066 245.023C379.199 244.05 379.313 243.062 379.403 242.09C379.428 241.827 379.629 241.632 379.86 241.634C379.876 241.634 379.892 241.635 379.905 241.636ZM378.772 249.482C379.018 249.547 379.169 249.82 379.111 250.092C378.902 251.063 378.665 252.042 378.405 252.999C378.332 253.267 378.079 253.419 377.835 253.34C377.593 253.26 377.457 252.977 377.529 252.709C377.784 251.77 378.017 250.81 378.222 249.859C378.272 249.624 378.461 249.466 378.67 249.468C378.703 249.468 378.738 249.474 378.772 249.482ZM376.643 257.066C376.877 257.173 376.988 257.468 376.892 257.727C376.551 258.648 376.178 259.574 375.787 260.477C375.677 260.73 375.401 260.832 375.177 260.715C374.949 260.594 374.854 260.291 374.963 260.039C375.347 259.154 375.712 258.247 376.046 257.343C376.119 257.145 376.292 257.026 376.473 257.027C376.531 257.028 376.588 257.042 376.643 257.066ZM373.472 264.192C373.687 264.337 373.755 264.649 373.623 264.888C373.153 265.744 372.654 266.592 372.142 267.413C371.998 267.644 371.712 267.698 371.506 267.541C371.298 267.381 371.248 267.065 371.391 266.835C371.894 266.032 372.383 265.199 372.844 264.361C372.931 264.203 373.082 264.116 373.238 264.118C373.318 264.119 373.398 264.142 373.472 264.192Z" fill="#455A64"/>
<path d="M158.864 124.914L367.344 288.681C372.577 292.792 371.978 297.15 371.498 301.059C371.018 304.967 368.84 310.317 364.369 312.898L249.913 378.979C245.443 381.561 238.748 381.241 234.96 378.266L26.4775 214.5C22.6897 211.525 22.3232 206.824 22.8035 202.915C23.2839 199.006 24.9818 192.864 29.4529 190.282L143.91 124.201C148.381 121.62 153.587 120.772 158.864 124.914Z" fill="#37474F"/>
<path d="M152.742 130.029L35.0461 197.981L244.428 362.404L242.179 380.708C239.474 380.579 236.854 379.755 234.961 378.267L26.4775 214.5C22.6897 211.525 22.3232 206.824 22.8035 202.915C23.2839 199.006 24.9818 192.864 29.4529 190.283L143.91 124.202C146.702 122.59 150.071 121.472 153.687 122.33L153.617 122.896L152.742 130.029Z" fill="#263238"/>
<path d="M365.298 289.621L157.17 126.133C154.167 123.774 148.82 123.524 145.279 125.565L33.5498 190.077C28.7458 192.845 28.1403 197.736 32.2064 200.929L239.036 363.399C241.682 365.477 246.401 365.702 249.528 363.892L364.315 297.623C367.856 295.58 368.301 291.98 365.298 289.621Z" fill="#455A64"/>
<path d="M89.42 249.969C90.9125 251.141 91.9174 253.756 91.6656 255.809C91.5437 256.801 91.1499 257.474 90.6086 257.773C90.226 257.985 88.7712 258.854 88.3734 259.075C87.7951 259.396 87.0501 259.293 86.2826 258.691L69.71 245.674C68.2175 244.501 67.2126 241.887 67.4644 239.833C67.5807 238.887 67.9448 238.231 68.4493 237.912C68.8463 237.662 70.3565 236.791 70.7526 236.57C71.3309 236.246 72.0783 236.347 72.8475 236.952L89.42 249.969Z" fill="#455A64"/>
<path d="M87.1962 251.255L70.6237 238.238C69.1312 237.065 67.7173 237.78 67.4646 239.834C67.212 241.888 68.2177 244.502 69.7094 245.675L86.282 258.692C87.7745 259.865 89.1884 259.15 89.441 257.096C89.6945 255.042 88.6888 252.428 87.1962 251.255Z" fill="#37474F"/>
<path d="M60.4169 227.187C61.9094 228.359 62.9143 230.974 62.6625 233.027C62.5406 234.019 62.1468 234.692 61.6047 234.991C61.2221 235.202 59.7681 236.072 59.3695 236.293C58.7912 236.614 58.0462 236.511 57.2787 235.909L40.7061 222.892C39.2136 221.719 38.2087 219.105 38.4605 217.051C38.5768 216.104 38.9409 215.449 39.4454 215.131C39.8424 214.881 41.3525 214.01 41.7487 213.788C42.327 213.464 43.0744 213.566 43.8436 214.171L60.4169 227.187Z" fill="#455A64"/>
<path d="M58.1924 228.472L41.6198 215.455C40.1273 214.282 38.7134 214.997 38.4608 217.051C38.2081 219.105 39.213 221.719 40.7056 222.892L57.2781 235.909C58.7706 237.081 60.1845 236.367 60.4372 234.313C60.6898 232.259 59.6849 229.644 58.1924 228.472Z" fill="#37474F"/>
<path d="M160.953 135.105L355.304 287.773C358.174 290.028 357.759 293.459 354.375 295.405L250.524 355.365C247.149 357.328 242.073 357.087 239.195 354.827L43.4544 201.067C41.1278 199.24 40.945 196.642 42.7976 194.684C42.9476 194.533 43.0839 194.384 43.2403 194.238C43.5803 193.956 43.9685 193.685 44.3904 193.441L73.6008 176.575C73.6008 176.575 74.4509 176.08 75.5064 175.477C76.5546 174.869 78.1281 174.941 79.0223 175.644C79.9109 176.342 81.5502 176.389 82.6706 175.735L116.715 156.082C117.829 155.437 118.029 154.341 117.142 153.644C116.309 152.989 116.365 152.011 117.232 151.388C117.291 151.344 117.357 151.307 117.423 151.269L146.001 134.775L146.607 134.42C150.885 131.953 157.333 132.262 160.953 135.105Z" fill="black"/>
<path d="M78.4428 180.345C77.5478 179.643 75.975 179.57 74.9268 180.179C73.8714 180.782 73.0213 181.277 73.0213 181.277L43.8108 198.143C43.389 198.387 43.0016 198.658 42.6608 198.941C42.5044 199.087 42.368 199.235 42.2189 199.386C42.1707 199.436 42.1395 199.492 42.0938 199.544C42.4097 200.087 42.8605 200.603 43.4531 201.069L239.194 354.828C242.072 357.089 247.148 357.33 250.523 355.367L354.374 295.407C355.077 295.003 355.645 294.531 356.089 294.022C355.773 293.471 355.325 292.947 354.725 292.475L160.374 139.807C156.754 136.963 150.306 136.654 146.027 139.123L145.42 139.477L117.594 155.537C117.594 155.537 117.161 159.101 117.108 159.523C117.05 159.985 116.717 160.446 116.134 160.784L82.0903 180.437C80.9699 181.09 79.3306 181.042 78.4428 180.345Z" fill="#EBEBEB"/>
<path d="M71.1643 196.353C71.1226 196.349 71.0785 196.327 71.0344 196.286L70.6197 195.905L69.3253 196.653C69.2539 196.694 69.1898 196.688 69.1304 196.633L68.982 196.496C68.9484 196.466 68.9259 196.438 68.9155 196.418C68.9059 196.396 68.8986 196.367 68.8938 196.33L68.7856 194.17C68.7839 194.13 68.7872 194.101 68.7968 194.081C68.8056 194.061 68.8305 194.04 68.8714 194.016L69.0518 193.912C69.1055 193.88 69.1553 193.867 69.2026 193.874C69.2483 193.879 69.2948 193.904 69.3413 193.946L70.7905 195.278L71.0761 195.113C71.1314 195.081 71.1787 195.069 71.2204 195.075C71.2637 195.082 71.3078 195.106 71.3536 195.148L71.4522 195.239C71.4963 195.279 71.5164 195.314 71.5132 195.345C71.5115 195.375 71.4835 195.406 71.4281 195.438L71.1426 195.603L71.5573 195.984C71.6014 196.024 71.6214 196.06 71.6174 196.09C71.6126 196.122 71.5829 196.154 71.5268 196.187L71.3086 196.312C71.2549 196.345 71.2076 196.358 71.1643 196.353ZM70.3527 195.531L69.3197 194.581L69.4135 196.074L70.3527 195.531Z" fill="#455A64"/>
<path d="M72.4534 195.234C71.9762 195.176 71.5303 194.955 71.1156 194.574C70.7026 194.195 70.5117 193.828 70.5422 193.476C70.5727 193.122 70.8181 192.812 71.2784 192.547C71.4629 192.439 71.653 192.355 71.8487 192.294C72.0427 192.232 72.2248 192.2 72.394 192.196C72.4325 192.196 72.4606 192.203 72.4782 192.219C72.4903 192.229 72.4999 192.246 72.5055 192.268L72.5689 192.504C72.5737 192.533 72.5697 192.553 72.5528 192.563C72.544 192.568 72.5199 192.572 72.4814 192.576C72.204 192.599 71.9369 192.684 71.681 192.832C71.3707 193.011 71.2039 193.224 71.183 193.47C71.1638 193.716 71.3121 193.985 71.6297 194.278C71.9497 194.573 72.2745 194.742 72.6009 194.784C72.9274 194.829 73.2401 194.764 73.5401 194.59C73.6492 194.528 73.747 194.46 73.8352 194.385C73.9226 194.31 73.9852 194.241 74.0221 194.176L73.3484 193.557L72.8087 193.869C72.7541 193.901 72.706 193.913 72.6635 193.906C72.6202 193.9 72.5769 193.876 72.5304 193.833L72.4357 193.747C72.39 193.704 72.3684 193.668 72.3732 193.639C72.3764 193.609 72.4053 193.58 72.4598 193.548L73.3219 193.05C73.3821 193.016 73.4382 193.003 73.4896 193.012C73.5409 193.02 73.593 193.049 73.6468 193.099L74.6075 193.982C74.6436 194.015 74.6669 194.043 74.6765 194.065C74.6877 194.086 74.6853 194.112 74.6733 194.14C74.5634 194.415 74.2932 194.675 73.8625 194.924C73.3989 195.189 72.9298 195.294 72.4534 195.234Z" fill="#455A64"/>
<path d="M83.2122 188.792C83.5322 189.087 83.4552 189.52 83.0406 189.76C82.6259 189.999 82.0292 189.955 81.7092 189.66C81.3892 189.366 81.4662 188.933 81.8809 188.693C82.2963 188.454 82.8922 188.498 83.2122 188.792Z" fill="#455A64"/>
<path d="M80.9313 187.821C80.1743 188.258 79.8438 188.939 79.9914 189.574C80.0211 189.703 80.1775 189.794 80.3587 189.792H80.3611C80.5897 189.789 80.7685 189.638 80.7292 189.476C80.621 189.028 80.8543 188.547 81.3869 188.239C81.9202 187.931 82.6163 187.876 83.189 188.056C83.3975 188.121 83.6413 188.028 83.6974 187.866L83.6982 187.865C83.7423 187.737 83.6549 187.606 83.4905 187.555C82.6741 187.305 81.6884 187.384 80.9313 187.821Z" fill="#455A64"/>
<path d="M80.0032 186.968C78.878 187.617 78.3407 188.607 78.457 189.563C78.4738 189.703 78.6302 189.811 78.8259 189.809H78.8291C79.0504 189.807 79.2213 189.665 79.2012 189.506C79.101 188.726 79.5381 187.917 80.458 187.386C81.3779 186.855 82.5608 186.729 83.5809 186.978C83.7887 187.029 84.0164 186.94 84.0702 186.784C84.1175 186.646 84.01 186.51 83.8264 186.466C82.5809 186.162 81.1316 186.316 80.0032 186.968Z" fill="#455A64"/>
<path d="M57.1668 204.895L56.3672 204.159L57.749 203.362L58.5486 204.097L57.1668 204.895Z" fill="#455A64"/>
<path d="M59.239 203.699L57.6406 202.229L59.0217 201.431L60.6209 202.901L59.239 203.699Z" fill="#455A64"/>
<path d="M61.3128 202.501L58.9141 200.296L60.2959 199.499L62.6947 201.704L61.3128 202.501Z" fill="#455A64"/>
<path d="M63.3859 201.305L60.1875 198.364L61.5701 197.566L64.7677 200.507L63.3859 201.305Z" fill="#455A64"/>
<path d="M147.536 148.875C147.24 148.822 146.977 148.852 146.792 148.959L141.626 151.932C141.29 152.126 141.298 152.524 141.642 152.84L143.095 154.176C143.287 154.352 143.555 154.479 143.848 154.533C143.974 154.556 144.096 154.563 144.211 154.555C144.36 154.545 144.488 154.508 144.592 154.448L149.759 151.475C150.093 151.281 150.087 150.883 149.743 150.567L148.29 149.231C148.098 149.056 147.831 148.929 147.536 148.875ZM143.843 154.317C143.737 154.298 143.619 154.236 143.524 154.148L142.071 152.811C141.817 152.579 141.812 152.262 142.058 152.12L147.224 149.146C147.285 149.112 147.354 149.09 147.425 149.085C147.463 149.083 147.502 149.085 147.54 149.092C147.648 149.111 147.764 149.173 147.86 149.261L149.313 150.597C149.567 150.831 149.573 151.147 149.327 151.289L144.16 154.263C144.065 154.318 143.953 154.337 143.843 154.317Z" fill="#455A64"/>
<path d="M143.288 151.786L145.008 153.367L144.195 153.834C144.125 153.874 143.987 153.879 143.947 153.842L142.668 152.667C142.485 152.498 142.481 152.258 142.655 152.153L143.288 151.786Z" fill="#455A64"/>
<path d="M143.668 151.573L144.635 151.012L146.355 152.592L145.383 153.15L143.668 151.573Z" fill="#455A64"/>
<path d="M145.016 150.799L145.982 150.237L147.707 151.823L146.735 152.379L145.016 150.799Z" fill="#455A64"/>
<path d="M147.444 149.569L148.683 150.708C148.91 150.917 148.805 151.19 148.409 151.418L148.083 151.607L146.363 150.026L147.135 149.581C147.225 149.529 147.395 149.523 147.444 149.569Z" fill="#455A64"/>
<path d="M148.492 149.129C148.634 149.046 148.991 149.2 149.289 149.475L149.559 149.723C149.858 149.998 149.988 150.293 149.85 150.383L149.601 150.546L148.234 149.281C148.234 149.281 148.35 149.212 148.492 149.129Z" fill="#455A64"/>
<path d="M134.156 157.691L138.395 154.077L139.67 157.567L137.366 156.543L134.156 157.691Z" fill="#455A64"/>
<path d="M82.4112 168.487L98.0166 159.478C98.9477 158.94 100.302 158.976 101.043 159.556C101.783 160.138 101.628 161.045 100.697 161.582L85.0915 170.592C84.1604 171.129 82.8058 171.094 82.0656 170.512C81.3253 169.933 81.4801 169.026 82.4112 168.487Z" fill="#263238"/>
<path d="M105.482 154.429C106.531 153.823 108.101 153.899 108.99 154.596C109.878 155.294 109.749 156.351 108.699 156.957C107.651 157.562 106.08 157.488 105.192 156.789C104.303 156.09 104.433 155.034 105.482 154.429Z" fill="#263238"/>
<path d="M127.988 183.713L127.97 183.724L126.127 182.276C125.471 181.761 124.392 181.656 123.721 182.044L121.461 183.348C120.789 183.736 120.777 184.47 121.434 184.986L123.277 186.434L123.259 186.443C122.747 186.739 122.737 187.299 123.239 187.694L126.957 190.614C127.459 191.008 128.282 191.088 128.794 190.791L133.523 188.061C134.035 187.765 134.045 187.205 133.543 186.811L129.825 183.891C129.323 183.497 128.501 183.417 127.988 183.713ZM121.959 184.683C121.585 184.389 121.592 183.972 121.974 183.752L124.234 182.447C124.616 182.227 125.23 182.286 125.603 182.579L127.446 184.027L123.802 186.131L121.959 184.683Z" fill="#455A64"/>
<path d="M141.525 230.933C141.925 231.248 141.888 231.54 141.417 231.812L140.806 232.165C140.335 232.437 139.901 232.418 139.499 232.103L123.277 219.36L121.279 225.631C121.131 226.04 120.762 226.202 120.176 226.12L119.44 226.025C119.168 225.985 118.966 225.898 118.832 225.765C118.699 225.631 118.662 225.471 118.726 225.288L121.106 217.829C121.165 217.672 121.251 217.549 121.36 217.461C121.47 217.371 121.601 217.284 121.75 217.198L122.361 216.845C122.832 216.573 123.268 216.594 123.668 216.907L141.525 230.933Z" fill="#455A64"/>
<path d="M133.052 218.018C132.456 217.522 131.962 216.928 131.569 216.241C131.176 215.554 130.986 214.827 131.001 214.064C131.014 213.302 131.283 212.529 131.809 211.744C132.332 210.959 133.206 210.215 134.427 209.51C135.649 208.804 136.842 208.327 138.005 208.073C139.172 207.822 140.282 207.738 141.336 207.821C142.39 207.905 143.376 208.138 144.294 208.525C145.211 208.909 146.023 209.38 146.731 209.936C147.856 210.82 148.565 211.77 148.857 212.789C149.151 213.807 149.171 215.02 148.918 216.426L147.88 225.855L158.643 219.642C159.135 219.358 159.591 219.379 160.008 219.707L160.416 220.028C160.816 220.341 160.769 220.64 160.276 220.925L147.103 228.531C146.631 228.802 146.196 228.782 145.797 228.468L145.389 228.148C145.207 228.005 145.089 227.832 145.034 227.627C144.979 227.426 144.985 227.144 145.049 226.785L146.319 216.443C146.446 215.725 146.513 215.106 146.519 214.584C146.523 214.063 146.462 213.597 146.331 213.189C146.203 212.782 146.005 212.414 145.736 212.087C145.467 211.759 145.124 211.433 144.708 211.104C143.491 210.15 142.131 209.635 140.63 209.564C139.126 209.494 137.603 209.901 136.06 210.792C134.583 211.645 133.783 212.594 133.665 213.64C133.546 214.685 133.989 215.721 134.999 216.746C135.173 216.943 135.232 217.125 135.171 217.298C135.11 217.467 135.014 217.59 134.887 217.665L134.244 218.036C133.793 218.293 133.396 218.287 133.052 218.018Z" fill="#455A64"/>
<path d="M157.958 208.463C158.139 208.604 158.215 208.761 158.182 208.926C158.153 209.091 158.031 209.236 157.817 209.361L156.274 210.252C155.803 210.523 155.368 210.503 154.969 210.189L153.662 209.162C153.48 209.018 153.396 208.864 153.407 208.698C153.417 208.53 153.529 208.385 153.742 208.263L155.285 207.372C155.5 207.247 155.736 207.192 155.994 207.205C156.251 207.217 156.469 207.294 156.652 207.438L157.958 208.463ZM167.487 215.946C167.669 216.089 167.743 216.243 167.713 216.41C167.682 216.576 167.562 216.721 167.346 216.843L165.804 217.734C165.332 218.005 164.897 217.986 164.497 217.671L163.191 216.646C163.01 216.503 162.923 216.349 162.934 216.18C162.944 216.014 163.055 215.869 163.271 215.745L164.813 214.854C165.027 214.732 165.262 214.676 165.521 214.688C165.779 214.7 165.999 214.777 166.181 214.921L167.487 215.946Z" fill="#455A64"/>
<path d="M166.57 191.321C167.064 191.037 167.518 191.058 167.936 191.386L168.343 191.707C168.453 191.791 168.52 191.882 168.548 191.977C168.575 192.071 168.595 192.167 168.604 192.261L168.548 201.456L169.191 201.085C170.282 200.454 171.394 199.962 172.52 199.607C173.647 199.254 174.757 199.065 175.845 199.043C176.932 199.021 177.993 199.176 179.028 199.507C180.062 199.836 181.03 200.359 181.938 201.071C182.847 201.783 183.456 202.525 183.768 203.297C184.083 204.068 184.136 204.84 183.931 205.614C183.727 206.388 183.28 207.147 182.591 207.89C181.903 208.633 181.014 209.321 179.922 209.952C178.722 210.644 177.519 211.161 176.312 211.497C175.108 211.834 173.96 212.022 172.873 212.056C171.783 212.092 170.784 211.993 169.879 211.762C168.97 211.532 168.207 211.188 167.587 210.729C167.425 210.601 167.361 210.464 167.399 210.318C167.437 210.173 167.551 210.044 167.745 209.934L168.194 209.674C168.366 209.574 168.569 209.508 168.802 209.472C169.035 209.436 169.332 209.5 169.689 209.665C170.459 210.037 171.227 210.254 171.994 210.316C172.765 210.382 173.52 210.346 174.262 210.215C175.005 210.083 175.716 209.876 176.397 209.594C177.078 209.311 177.709 209.004 178.289 208.67C179.124 208.188 179.803 207.684 180.324 207.16C180.847 206.636 181.19 206.097 181.358 205.543C181.527 204.989 181.496 204.433 181.265 203.87C181.036 203.311 180.585 202.768 179.913 202.241C178.571 201.185 177.133 200.706 175.598 200.8C174.064 200.895 172.472 201.415 170.823 202.368L167.996 204.001C167.524 204.272 167.089 204.252 166.691 203.939L166.282 203.618C166.137 203.503 166.041 203.393 165.995 203.283C165.95 203.173 165.923 203.06 165.918 202.938L165.923 193.922L156.219 199.524C155.748 199.795 155.313 199.774 154.913 199.461L154.504 199.14C154.087 198.812 154.115 198.512 154.585 198.24L166.57 191.321Z" fill="#455A64"/>
<path d="M197.913 198.379C198.31 198.694 198.275 198.986 197.804 199.258L197.193 199.61C196.722 199.881 196.287 199.861 195.887 199.548L179.663 186.804L177.667 193.073C177.52 193.482 177.15 193.645 176.563 193.563L175.827 193.469C175.555 193.429 175.352 193.343 175.218 193.207C175.086 193.076 175.048 192.916 175.113 192.732L177.492 185.273C177.551 185.117 177.636 184.993 177.746 184.905C177.857 184.815 177.988 184.728 178.137 184.642L178.748 184.289C179.218 184.017 179.654 184.038 180.053 184.352L197.913 198.379Z" fill="#455A64"/>
<path d="M144.405 256.137L226.79 208.571C229.008 207.29 232.329 207.449 234.208 208.925L252.94 223.638C254.819 225.114 254.545 227.349 252.326 228.63L169.939 276.195C167.721 277.476 164.4 277.317 162.52 275.842L143.789 261.129C141.912 259.653 142.186 257.418 144.405 256.137Z" fill="white"/>
<path d="M178.154 282.654L260.54 235.087C262.758 233.807 266.079 233.965 267.959 235.441L286.691 250.154C288.57 251.63 288.295 253.865 286.077 255.145L203.69 302.711C201.472 303.992 198.151 303.833 196.271 302.358L177.54 287.646C175.662 286.169 175.936 283.935 178.154 282.654Z" fill="white"/>
<path d="M211.908 309.171L294.294 261.604C296.512 260.323 299.833 260.482 301.713 261.958L320.444 276.67C322.324 278.147 322.049 280.381 319.831 281.662L237.445 329.229C235.226 330.509 231.905 330.351 230.025 328.875L211.295 314.163C209.416 312.686 209.69 310.451 211.908 309.171Z" fill="white"/>
<path d="M245.405 311.282C245.393 311.281 245.379 311.281 245.364 311.282C243.363 311.36 241.407 310.909 240.111 309.891L237.705 308C234.959 305.844 230.107 305.613 226.867 307.483C223.627 309.353 223.226 312.618 225.971 314.774L228.121 316.463C229.474 317.526 230 318.947 229.622 320.333L230.064 321.345C230.755 321.888 231.978 321.946 232.794 321.475L246.497 313.563C247.313 313.092 247.414 312.27 246.723 311.727C246.377 311.456 245.899 311.306 245.405 311.282ZM242.979 320.138C244.534 319.24 244.726 317.673 243.408 316.637L237.775 319.889C239.093 320.925 241.423 321.036 242.979 320.138Z" fill="#E0E0E0"/>
<path d="M211.705 284.142C211.693 284.141 211.68 284.141 211.665 284.142C209.663 284.22 207.707 283.768 206.411 282.75L204.005 280.861C201.26 278.704 196.408 278.473 193.168 280.344C189.928 282.214 189.527 285.479 192.272 287.635L194.423 289.324C195.775 290.385 196.301 291.807 195.924 293.193L196.366 294.205C197.057 294.748 198.279 294.807 199.096 294.335L212.798 286.424C213.615 285.952 213.716 285.13 213.025 284.587C212.678 284.316 212.199 284.166 211.705 284.142ZM209.279 292.998C210.834 292.099 211.027 290.532 209.709 289.497L204.076 292.749C205.394 293.784 207.723 293.896 209.279 292.998Z" fill="#E0E0E0"/>
<g opacity="0.3">
<path d="M240.834 197.85L216.013 178.354L176.328 305.436L201.148 324.931L240.834 197.85Z" fill="white"/>
<path d="M315.773 261.874L273.707 228.83L235.312 351.777L239.196 354.827C242.073 357.087 247.149 357.328 250.525 355.365L294.508 329.97L315.773 261.874Z" fill="white"/>
<path d="M153.747 287.697L193.433 160.616L160.954 135.105C157.334 132.262 150.886 131.953 146.606 134.421L146 134.776L128.783 144.713L97.8438 243.788L153.747 287.697Z" fill="white"/>
</g>
<path opacity="0.2" d="M218.805 284.419C248.646 284.419 272.837 271.739 272.837 256.097C272.837 240.456 248.646 227.775 218.805 227.775C188.964 227.775 164.773 240.456 164.773 256.097C164.773 271.739 188.964 284.419 218.805 284.419Z" fill="black"/>
<path d="M242.4 271.859C242.4 271.859 259.201 265.805 264.679 256.925C264.174 247.086 263.223 229.419 263.079 229.537L231.414 232.815L238.105 260.576L242.4 271.859Z" fill="#37474F"/>
<path d="M254.747 254.499C257.716 249.356 260.296 237.016 260.305 232.818H174.641C174.641 232.818 173.047 251.328 173.18 258.771C173.18 258.802 173.188 258.826 173.188 258.858C173.189 258.863 173.192 258.867 173.193 258.872C174.98 263.287 179.189 266.001 188.784 270.163C206.54 277.857 230.634 276.683 242.401 271.861V267.938C242.401 267.938 251.778 259.642 254.747 254.499Z" fill="#455A64"/>
<path d="M276.747 149.11C290.698 161.284 293.264 163.77 293.264 163.77C297.106 147.789 300.28 136.611 300.764 129.826C301.248 123.041 310.019 108.181 310.019 108.181C317.01 109.989 322.498 120.97 318.958 132.203C316.383 140.371 321.251 160.242 316.245 186.554C313.626 200.314 306.004 203.573 291.215 195.224C280.851 189.374 262.142 175.834 262.142 175.834L247.941 128.596C259.829 130.755 263.156 137.25 276.747 149.11Z" fill="#FFA8A7"/>
<path d="M250.262 128.421C257.011 129.751 261.652 133.195 269.362 140.894C277.073 148.593 293.372 163.322 293.372 163.322C293.372 163.322 289.328 173.351 292.651 186.108C295.542 197.204 300.004 199.073 300.004 199.073C300.004 199.073 296.489 200.093 287.142 194.089C277.794 188.084 257.1 173.247 257.1 173.247L250.262 128.421Z" fill="#455A64"/>
<path d="M294.145 160.13C294.145 160.13 292.515 185.608 300.347 192.703C308.18 199.797 313.15 195.127 313.15 195.127C313.15 195.127 312.74 202.366 307.994 202.13C303.249 201.893 302.506 202.262 299.718 202.177C296.931 202.092 292.547 201.701 290.567 196.13C284.728 184.843 286.874 170.035 290.937 161.113C292.32 161.791 292.31 159.843 294.145 160.13Z" fill="#37474F"/>
<path d="M330.112 108.858C329.929 113.432 328.142 116.547 327.214 118.895C323.608 128.02 321.577 126.944 317.996 133.962L310.429 114.397C307.131 108.616 309.731 106.048 314.825 104.839L330.112 108.858Z" fill="#F28F8F"/>
<path d="M285.588 100.934C290.673 104.336 297.553 102.97 300.953 97.8853C304.353 92.7998 302.989 85.921 297.903 82.5197C292.818 79.1193 285.939 80.4843 282.538 85.5698C279.138 90.6544 280.503 97.534 285.588 100.934Z" fill="#455A64"/>
<path d="M289.829 97.1117C291.915 96.0843 297.326 93.4185 302.776 90.7334C302.997 93.1691 302.419 95.6938 300.954 97.8848C297.553 102.97 290.673 104.335 285.589 100.934C283.682 99.6589 282.297 97.8945 281.492 95.9183C283.29 98.3115 285.667 99.1616 289.829 97.1117Z" fill="#37474F"/>
<path d="M299.312 94.1676L299.895 85.2734C305.982 92.1955 316.357 100.729 324.844 105.672L324.61 109.228C318.703 107.453 308.475 101.099 299.312 94.1676Z" fill="#37474F"/>
<path d="M294.035 101.925L299.287 101.524L309.412 108.197C313.946 111.184 319.714 111.576 324.61 109.229C317.746 106.86 307.708 100.4 299.313 94.168L294.035 101.925Z" fill="#455A64"/>
<path d="M311.226 101.07C311.22 101.159 311.214 101.247 311.209 101.331C311.181 101.75 310.854 102.24 310.477 102.426L308.646 103.328C308.269 103.514 308.246 103.853 308.596 104.086L308.811 104.23C309.16 104.463 309.748 104.502 310.125 104.317L311.987 103.402C312.363 103.217 312.686 102.727 312.707 102.307L312.72 102.061C312.741 101.642 312.475 101.112 312.126 100.88L311.908 100.734C311.559 100.5 311.254 100.651 311.226 101.07Z" fill="#593163"/>
<path d="M314.682 103.047C314.677 103.136 314.671 103.225 314.665 103.309C314.637 103.728 314.309 104.218 313.933 104.403L312.102 105.305C311.726 105.491 311.704 105.83 312.052 106.064L312.267 106.207C312.616 106.441 313.204 106.48 313.581 106.295L315.442 105.38C315.819 105.194 316.142 104.704 316.163 104.286L316.175 104.039C316.196 103.62 315.931 103.091 315.582 102.857L315.364 102.711C315.015 102.478 314.71 102.629 314.682 103.047Z" fill="#593163"/>
<path d="M318.135 105.025C318.13 105.114 318.124 105.203 318.119 105.288C318.09 105.706 317.763 106.196 317.386 106.382L315.555 107.284C315.179 107.469 315.157 107.808 315.505 108.042L315.72 108.186C316.069 108.419 316.657 108.459 317.033 108.273L318.895 107.358C319.272 107.173 319.594 106.684 319.615 106.264L319.628 106.017C319.649 105.598 319.383 105.069 319.034 104.836L318.816 104.69C318.468 104.457 318.163 104.607 318.135 105.025Z" fill="#593163"/>
<path d="M294.23 76.0234L294.231 76.0291C292.7 76.7877 291.619 78.4647 291.288 80.9084C291.25 81.1627 291.224 81.4281 291.205 81.7032C291.184 82.028 291.174 82.3504 291.18 82.6832C291.185 83.2302 291.221 83.7844 291.291 84.3482C291.413 85.3764 291.638 86.4222 291.951 87.4632C292.797 90.2589 294.279 93.0058 296.14 95.1784C297.081 96.2739 298.115 97.2219 299.217 97.9589C301.558 99.5244 303.759 99.8356 305.44 99.0713L299.667 101.921L299.661 101.908C297.548 102.84 294.964 102.725 292.661 101.185C291.609 100.482 290.614 99.5838 289.711 98.5492C287.79 96.3557 286.261 93.5495 285.397 90.6912C285.084 89.6494 284.857 88.6012 284.738 87.5754C284.668 87.0116 284.628 86.4551 284.627 85.9105C284.621 85.5777 284.63 85.2496 284.652 84.9305C284.668 84.6586 284.7 84.3923 284.742 84.1317C285.131 81.7585 286.518 79.9388 288.344 78.9379L288.342 78.9323L288.502 78.8513C288.569 78.8192 288.639 78.7831 288.71 78.7526L294.23 76.0234Z" fill="#593163"/>
<path opacity="0.1" d="M299.667 101.922L299.661 101.909C297.548 102.841 294.964 102.726 292.662 101.186C291.609 100.483 290.615 99.5849 289.711 98.5503L296.14 95.1787C297.081 96.2742 298.115 97.2222 299.217 97.9592C301.557 99.5247 303.759 99.8359 305.44 99.0716L299.667 101.922Z" fill="black"/>
<path d="M300.59 77.0786C305.394 80.2922 308.982 87.568 308.6 93.3335C308.412 96.2336 307.251 98.2009 305.533 99.0261C305.504 99.043 305.471 99.0574 305.439 99.0727C303.758 99.8362 301.556 99.525 299.216 97.9603C294.412 94.7475 290.825 87.4717 291.203 81.7037C291.394 78.8278 292.536 76.8669 294.23 76.0296C295.928 75.1851 298.184 75.469 300.59 77.0786Z" fill="#593163"/>
<path opacity="0.2" d="M300.59 77.0786C305.394 80.2922 308.982 87.568 308.6 93.3335C308.412 96.2336 307.251 98.2009 305.533 99.0261C305.504 99.043 305.471 99.0574 305.439 99.0727C303.758 99.8362 301.556 99.525 299.216 97.9603C294.412 94.7475 290.825 87.4717 291.203 81.7037C291.394 78.8278 292.536 76.8669 294.23 76.0296C295.928 75.1851 298.184 75.469 300.59 77.0786Z" fill="black"/>
<path d="M314.795 53.1533C314.795 53.1533 313.613 63.3596 320.513 77.3665C321.869 80.1174 323.3 82.5338 324.722 84.6374C330.538 93.2437 336.226 96.6554 336.226 96.6554C329.165 95.2118 321.539 94.186 314 95.9432C309.334 97.0299 305.308 98.4888 305.308 98.4888L305.305 98.4824C303.752 99.2427 301.699 98.9202 299.539 97.4767C298.118 96.5247 296.807 95.2054 295.684 93.6655C294.97 92.6959 294.33 91.6389 293.786 90.5345C292.382 87.685 291.605 84.526 291.788 81.7414C291.96 79.1493 292.954 77.3248 294.504 76.5573L294.5 76.5509C294.5 76.5509 298.11 74.2475 301.816 71.2104C307.802 66.3037 311.637 59.6319 314.795 53.1533Z" fill="#593163"/>
<path opacity="0.6" d="M314.795 53.1533C314.795 53.1533 313.613 63.3596 320.513 77.3665C321.869 80.1174 323.3 82.5338 324.722 84.6374C330.538 93.2437 336.226 96.6554 336.226 96.6554C329.165 95.2118 321.539 94.186 314 95.9432C309.334 97.0299 305.308 98.4888 305.308 98.4888L305.305 98.4824C303.752 99.2427 301.699 98.9202 299.539 97.4767C298.118 96.5247 296.807 95.2054 295.684 93.6655C294.97 92.6959 294.33 91.6389 293.786 90.5345C292.382 87.685 291.605 84.526 291.788 81.7414C291.96 79.1493 292.954 77.3248 294.504 76.5573L294.5 76.5509C294.5 76.5509 298.11 74.2475 301.816 71.2104C307.802 66.3037 311.637 59.6319 314.795 53.1533Z" fill="white"/>
<path opacity="0.1" d="M324.722 84.6381C330.537 93.2443 336.225 96.656 336.225 96.656C329.165 95.2124 321.538 94.1867 314 95.9439C309.334 97.0306 305.308 98.4894 305.308 98.4894L305.304 98.483C303.752 99.2433 301.699 98.9209 299.539 97.4773C298.117 96.5253 296.806 95.206 295.684 93.6662C302.416 89.8358 313.964 84.0743 324.722 84.6381Z" fill="black"/>
<path d="M335.21 46.0889C340.219 49.4396 344.672 54.6478 348.018 60.6019L348.021 60.6043C352.305 68.2321 354.774 77.0701 354.266 84.775C353.359 98.4956 343.36 103.42 331.932 95.7776C329.317 94.0284 326.856 91.7748 324.622 89.1747C319.125 82.7651 315.022 74.2519 313.479 66.0066C313.259 64.8453 313.093 63.6912 312.981 62.5467C312.933 62.0711 312.896 61.5939 312.868 61.1232L312.87 61.12C312.83 60.4487 312.808 59.7846 312.809 59.127C312.809 58.4421 312.829 57.7644 312.874 57.0947C313.781 43.3741 323.778 38.445 335.21 46.0889Z" fill="#593163"/>
<path opacity="0.1" d="M348.02 60.6045C352.304 68.2323 354.773 77.0704 354.265 84.7752C353.358 98.4958 343.359 103.42 331.931 95.7778C329.316 94.0286 326.855 91.775 324.621 89.1749L324.623 89.1717C326.55 89.4909 330.269 88.4948 329.511 86.4297C331.518 88.7459 333.705 90.7388 336.002 92.2747C339.287 94.4713 342.428 95.5115 345.087 95.287C347.355 95.0945 349.193 93.9733 350.539 91.9531C351.854 89.9938 352.656 87.2293 352.875 83.97C353.308 77.416 351.309 69.789 347.815 62.9904C347.815 62.9904 348.748 62.7234 348.02 60.6045Z" fill="black"/>
<path d="M335.027 47.7419C340.075 51.1175 344.588 56.7003 347.814 62.9904C351.309 69.7889 353.307 77.4159 352.874 83.9699C352.656 87.2292 351.854 89.9937 350.539 91.953C349.192 93.9732 347.355 95.0944 345.087 95.2869C342.427 95.5106 339.287 94.4713 336.002 92.2746C333.706 90.7388 331.519 88.7458 329.51 86.4296C328.751 85.5554 328.018 84.6355 327.315 83.6763C326.091 82.0074 324.949 80.2149 323.93 78.3543C323.72 77.9717 323.515 77.5876 323.315 77.2026C322.98 76.5626 322.656 75.9114 322.353 75.2569C321.304 73.0194 320.426 70.7088 319.745 68.3974C319.738 68.3742 319.732 68.3429 319.721 68.3172C319.27 66.7766 318.908 65.2408 318.639 63.7218C318.447 62.6287 318.307 61.5468 318.215 60.4801C318.176 60.0334 318.148 59.5891 318.128 59.1464C318.108 58.6162 318.1 58.0893 318.102 57.5648C318.108 57.0572 318.128 56.5543 318.159 56.0579C318.372 52.7857 319.184 50.0276 320.493 48.0643C323.4 43.7191 328.837 43.6012 335.027 47.7419Z" fill="#593163"/>
<path opacity="0.4" d="M335.027 47.7419C340.075 51.1175 344.588 56.7003 347.814 62.9904C351.309 69.7889 353.307 77.4159 352.874 83.9699C352.656 87.2292 351.854 89.9937 350.539 91.953C349.192 93.9732 347.355 95.0944 345.087 95.2869C342.427 95.5106 339.287 94.4713 336.002 92.2746C333.706 90.7388 331.519 88.7458 329.51 86.4296C328.751 85.5554 328.018 84.6355 327.315 83.6763C326.091 82.0074 324.949 80.2149 323.93 78.3543C323.72 77.9717 323.515 77.5876 323.315 77.2026C322.98 76.5626 322.656 75.9114 322.353 75.2569C321.304 73.0194 320.426 70.7088 319.745 68.3974C319.738 68.3742 319.732 68.3429 319.721 68.3172C319.27 66.7766 318.908 65.2408 318.639 63.7218C318.447 62.6287 318.307 61.5468 318.215 60.4801C318.176 60.0334 318.148 59.5891 318.128 59.1464C318.108 58.6162 318.1 58.0893 318.102 57.5648C318.108 57.0572 318.128 56.5543 318.159 56.0579C318.372 52.7857 319.184 50.0276 320.493 48.0643C323.4 43.7191 328.837 43.6012 335.027 47.7419Z" fill="black"/>
<path d="M330.71 63.6152L337.437 76.9565C334.362 78.6134 330.581 80.6064 328.028 84.6172C327.786 84.3092 327.552 83.9965 327.319 83.6757C326.094 82.0067 324.952 80.2142 323.934 78.3536C323.723 77.9702 323.519 77.5869 323.319 77.2019C322.984 76.5619 322.66 75.9107 322.357 75.2563C321.308 73.0187 320.43 70.7081 319.749 68.3968C319.742 68.3735 319.736 68.3422 319.725 68.3166C319.627 67.9773 319.53 67.6373 319.441 67.2988C324.254 67.6774 330.71 63.6152 330.71 63.6152Z" fill="#37474F"/>
<path d="M338.175 76.2259C337.283 77.5596 335.674 77.635 333.87 76.428L333.815 76.3911C330.979 74.4944 328.854 70.182 329.079 66.7784L329.083 66.7118C329.143 65.8039 329.373 65.0276 329.749 64.4646C330.641 63.1317 332.251 63.0555 334.054 64.2625L334.11 64.2994C336.946 66.1961 339.07 70.5085 338.846 73.9121L338.842 73.9787C338.781 74.8866 338.551 75.6637 338.175 76.2259Z" fill="#593163"/>
<path d="M313.156 97.5727C313.156 97.5727 315.425 96.9006 316.225 96.7274C318.138 96.3144 319.556 95.619 320.987 97.0265C321.475 97.5077 321.76 98.4124 322.313 98.7982C322.94 99.2352 324.196 99.0556 324.948 99.2168C325.823 99.4053 326.65 99.8023 327.182 100.548C327.541 101.05 327.644 101.973 328.126 102.275C328.733 102.654 329.766 102.584 330.45 102.881C331.989 103.551 332.42 105.598 332.99 107C333.605 108.514 334.634 110.616 333.979 112.239C333.477 113.483 332.529 114.369 331.47 115.177C330.251 116.105 328.918 117.056 327.591 117.83C326.438 118.502 325.214 117.957 324.484 117.011C323.524 115.766 321.695 116.23 320.539 115.145C320.038 114.675 319.889 113.966 319.4 113.484C318.809 112.901 318.301 112.543 318.075 111.706C317.68 110.249 318.388 108.684 318.68 107.272C318.935 106.041 318.619 104.588 318.279 103.382C318.019 102.456 317.59 101.02 316.774 100.386C316.776 100.385 313.167 97.5815 313.156 97.5727Z" fill="#FFA8A7"/>
<path d="M300.762 129.825C300.955 121.285 300.439 117.61 300.453 113.577C300.47 108.983 303.657 106.38 307.451 103.307C310.312 100.991 311.384 99.918 313.125 98.0341C314.542 96.4574 315.8 101.327 315.515 103.155C315.172 105.354 313.124 107.863 311.77 109.82C308.684 114.28 320.846 120.501 317.996 133.96C315.161 138.335 300.762 129.825 300.762 129.825Z" fill="#FFA8A7"/>
<path d="M261.733 164.023C260.988 137.359 249.175 130.046 244.52 128.118L225.578 124.339C219.794 124.978 195.167 132.364 188.379 134.043C184.009 135.123 184.218 143.62 182.011 157.625C180.217 169.001 179.22 178.581 178.141 194.437C177.236 207.724 176.171 222.859 178.522 241.662C208.484 250.805 237.236 255.178 259.488 238.106C258.968 234.36 261.235 203.164 261.424 193.963C261.615 184.762 261.935 171.241 261.733 164.023Z" fill="#FAFAFA"/>
<path d="M183.266 134.65L207.251 127.036C207.251 127.036 209.277 133.277 213.75 145.304C218.222 157.331 217.967 164.745 216.632 184.893C215.296 205.04 214.862 248.363 212.942 266.396C203.972 266.813 179.39 259.653 172.051 249.718C172.051 249.718 174.589 213.2 175.737 192.585C176.884 171.971 172.673 139.53 183.266 134.65Z" fill="#593163"/>
<path opacity="0.15" d="M183.266 134.65L207.251 127.036C207.251 127.036 209.277 133.277 213.75 145.304C218.222 157.331 217.967 164.745 216.632 184.893C215.296 205.04 214.862 248.363 212.942 266.396C203.972 266.813 179.39 259.653 172.051 249.718C172.051 249.718 174.589 213.2 175.737 192.585C176.884 171.971 172.673 139.53 183.266 134.65Z" fill="black"/>
<path d="M233.988 127.785C241.83 131.701 246.597 141.246 247.368 153.919C248.14 166.591 250.948 191.941 251.396 201.497C253.345 243.013 255.462 254.17 255.462 254.17C259.362 252.169 264.202 249.79 264.895 244.079C264.018 235.192 263.471 201.229 263.401 193.295C263.331 185.361 262.884 167.025 262.584 157.327C262.283 147.629 259.956 135.408 251.842 128.834C243.47 126.139 234.279 125.625 234.279 125.625L233.988 127.785Z" fill="#593163"/>
<path opacity="0.15" d="M233.988 127.785C241.83 131.701 246.597 141.246 247.368 153.919C248.14 166.591 250.948 191.941 251.396 201.497C253.345 243.013 255.462 254.17 255.462 254.17C259.362 252.169 264.202 249.79 264.895 244.079C264.018 235.192 263.471 201.229 263.401 193.295C263.331 185.361 262.884 167.025 262.584 157.327C262.283 147.629 259.956 135.408 251.842 128.834C243.47 126.139 234.279 125.625 234.279 125.625L233.988 127.785Z" fill="black"/>
<path d="M247.94 161.251C247.675 151.953 243.961 135.022 234.309 130.752C233.835 129.452 233.988 127.784 233.988 127.784L234.519 123.019C234.519 123.019 238.59 124.769 242.628 127.943C246.666 131.117 253.269 140.675 254.524 148.013C250.552 143.954 248.293 149.749 247.94 161.251Z" fill="#593163"/>
<path opacity="0.45" d="M247.94 161.251C247.675 151.953 243.961 135.022 234.309 130.752C233.835 129.452 233.988 127.784 233.988 127.784L234.519 123.019C234.519 123.019 238.59 124.769 242.628 127.943C246.666 131.117 253.269 140.675 254.524 148.013C250.552 143.954 248.293 149.749 247.94 161.251Z" fill="white"/>
<path d="M208.517 117.847C206.815 111.52 199.778 105.417 196.363 100.084C193.07 94.9413 191.016 90.9041 190.848 85.7913C190.749 82.763 192.258 78.5027 194.409 77.4345C190.763 66.4912 198.667 60.5003 203.024 59.0149C204.696 58.4455 207.459 57.5481 209.03 56.7084C211.357 55.4645 211.72 53.4619 213.517 51.6165C216.61 48.439 222.272 47.8359 224.841 51.9557C226.805 48.8464 229.85 48.6323 233.446 49.1912C236.873 49.7238 238.731 52.4105 238.682 55.5279C243.124 52.4562 247.745 55.3594 248.438 58.0782C248.949 60.0832 248.68 61.8412 250.184 63.5382C251.88 65.4494 254.712 65.1454 255.416 63.4043C256.176 66.2498 255.256 68.5603 252.105 68.6983C253.335 70.1611 253.812 72.1878 253.447 74.1391C252.951 76.7841 250.504 78.5436 248.422 78.7875C248.24 80.4051 248.311 81.8655 247.445 83.3284C246.611 84.7351 245.491 86.157 244.07 87.008C239.538 89.7219 234.357 90.9562 229.344 92.5009C227.361 93.112 225.378 93.7231 223.394 94.335C223.048 94.4417 221.226 94.7272 221.038 95.0616C221.038 95.0632 208.517 117.847 208.517 117.847Z" fill="#263238"/>
<path d="M199.938 110.27C204.715 112.541 207.501 109.327 207.501 109.327L208.026 120.659L208.285 132.932C208.285 132.932 221.138 146.648 238.543 145.817C239.423 141.909 238.151 135.04 235.346 131.676L234.912 121.637C234.912 121.637 239.548 121.28 242.529 120.57C247.505 119.4 251.388 115.005 252.308 109.408C253.27 103.559 252.797 94.1919 250.907 87.4696C250.425 85.7525 250.116 83.9825 250.132 82.1988C250.172 77.4622 249.068 74.8132 247.483 70.9893C241.509 67.0458 225.724 67.6081 214.449 76.0194C217.593 81.8772 216.571 88.2355 211.649 91.4403C212.074 93.3402 212.774 98.1755 209.606 98.3856C207.323 98.5364 206.9 95.6949 204.325 93.4012C201.696 91.0593 196.228 90.9495 194.468 94.86C192.004 100.329 194.704 107.783 199.938 110.27Z" fill="#FFA8A7"/>
<path d="M234.912 121.637C226.825 121.452 220.664 121.16 215.947 115.76C212.989 112.373 210.227 106.736 210.227 106.736C210.227 106.736 211.717 113.743 214.784 118.293C217.148 121.801 222.385 124.413 235.028 124.303L234.912 121.637Z" fill="#F28F8F"/>
<path d="M228.547 90.3002C228.652 91.593 227.728 92.7206 226.484 92.8185C225.238 92.9163 224.144 91.9467 224.039 90.6539C223.934 89.3603 224.858 88.2334 226.104 88.1356C227.348 88.0386 228.442 89.0074 228.547 90.3002Z" fill="#263238"/>
<path d="M226.214 83.7494L221.537 86.6904C220.746 85.3438 221.152 83.5938 222.443 82.7822C223.735 81.969 225.423 82.4029 226.214 83.7494Z" fill="#263238"/>
<path d="M247.237 82.8532L241.754 81.894C241.963 80.3581 243.361 79.3276 244.875 79.5922C246.389 79.8569 247.447 81.3165 247.237 82.8532Z" fill="#263238"/>
<path d="M246.754 87.9857C246.86 89.2785 245.936 90.4061 244.69 90.5032C243.445 90.6002 242.351 89.6322 242.246 88.3386C242.141 87.0457 243.066 85.9181 244.31 85.8203C245.555 85.7224 246.65 86.6913 246.754 87.9857Z" fill="#263238"/>
<path d="M244.594 96.8047L237.094 101.025L233.219 85.8999C236.029 84.5839 240.445 91.2846 244.594 96.8047Z" fill="#F28F8F"/>
<path d="M229.427 105.405L239.031 106.522C238.786 109.256 236.438 111.222 233.785 110.915C231.133 110.606 229.182 108.139 229.427 105.405Z" fill="#B16668"/>
<path d="M230.711 106.831C230.308 106.826 229.922 106.88 229.547 106.958C229.995 109.015 231.653 110.667 233.785 110.915C234.32 110.977 234.836 110.926 235.332 110.815C235.268 108.634 233.242 106.862 230.711 106.831Z" fill="#F28F8F"/>
<path d="M217.466 164.637C216.905 146.382 209.429 144.75 207.133 150.521C201.475 140.087 201.973 131.616 202.387 128.259C204.464 125.323 205.281 123.48 205.984 122.367C206.915 120.896 208.024 120.658 208.024 120.658L208.243 125.247C208.243 125.247 208.809 130.6 213.592 137.728C217.105 142.962 217.927 149.323 217.466 164.637Z" fill="#593163"/>
<path opacity="0.45" d="M217.466 164.637C216.905 146.382 209.429 144.75 207.133 150.521C201.475 140.087 201.973 131.616 202.387 128.259C204.464 125.323 205.281 123.48 205.984 122.367C206.915 120.896 208.024 120.658 208.024 120.658L208.243 125.247C208.243 125.247 208.809 130.6 213.592 137.728C217.105 142.962 217.927 149.323 217.466 164.637Z" fill="white"/>
<path d="M188.087 133.116C173.534 137.518 167.038 139.948 162.306 149.361C157.575 158.773 149.343 182.086 144.752 196.215C140.818 208.325 138.666 219.354 141.278 224.93L169.617 215.709L184.578 179.082C184.579 179.08 194.3 156.353 188.087 133.116Z" fill="#455A64"/>
<path d="M168.973 204.809C171.042 204.548 173.11 204.87 175.081 204.146C176.018 203.803 177.01 203.286 177.353 202.35C177.794 201.142 176.956 199.855 176.048 198.944C173.57 196.455 170.256 194.896 166.818 194.175C159.964 192.738 153.261 193.982 147.172 197.26C143.616 199.175 139.268 201.773 139.018 206.302C138.942 207.661 139.245 209.065 138.834 210.362C138.56 211.229 137.986 211.972 137.671 212.825C137.388 213.59 137.322 214.417 137.266 215.232C137.198 216.215 137.148 217.24 137.528 218.15C137.773 218.733 138.185 219.235 138.434 219.816C138.808 220.687 138.797 221.672 139.058 222.584C139.591 224.45 141.612 226.599 143.3 224.725C144.832 223.025 145.355 220.706 146.359 218.704C147.52 216.386 149.7 214.609 151.737 213.066C154.479 210.99 157.533 209.366 160.62 207.851C162.995 206.686 165.434 205.574 168.022 204.976C168.339 204.902 168.657 204.849 168.973 204.809Z" fill="#37474F"/>
<path d="M179.536 195.664C176.852 198.876 168.748 199.83 163.046 201.421C157.345 203.011 150.326 205.728 146.428 211.685C142.995 216.928 139.372 221.242 141.082 225.362C142.26 228.2 148.753 229.713 156.37 229.762C163.986 229.811 170.82 222.88 178.85 218.017C185.737 213.845 188.894 211.905 188.894 211.905L179.536 195.664Z" fill="#F28F8F"/>
<path d="M189.214 200.264C186.734 197.683 186.321 195.097 182.612 192.889C178.904 190.681 176.539 190.714 172.586 188.603C168.633 186.491 165.42 185.389 162.387 186.31C159.355 187.231 159.797 188.968 162.033 190.437C164.27 191.905 168.118 193.849 170.78 195.87C173.441 197.89 176.058 199.06 176.001 202.481C175.944 205.902 175.34 212.937 174.494 218.652C173.649 224.368 172.426 228.987 172.845 229.614C173.263 230.24 175.716 230.569 177.288 227.396C178.86 224.224 181.038 212.599 181.038 212.599C181.038 212.599 181.995 220.713 182.343 226.295C182.691 231.877 182.797 236.139 182.931 237.331C183.065 238.524 187.035 237.684 187.75 233.492C188.464 229.301 187.875 216.819 187.875 216.819C187.875 216.819 191.051 222.555 193.094 226.273C195.138 229.992 197.657 235.052 198.494 236.305C199.332 237.558 201.878 235.414 201.34 232.061C200.801 228.707 196.667 220.438 196.667 220.438C196.667 220.438 201.746 225.953 202.644 226.503C203.542 227.052 206.306 226.671 205.428 222.962C204.842 220.483 203.298 218.88 199.224 214.042C195.151 209.205 195.238 207.232 193.985 205.029C192.34 202.133 191.014 202.137 189.214 200.264Z" fill="#FFA8A7"/>
<path d="M178.855 202.007C182.96 203.919 187.054 202.136 187.633 201.118C187.307 203.964 181.591 205.525 178.855 202.007Z" fill="#F28F8F"/>
<path d="M205.5 225.099C205.104 225.615 203.929 225.762 202.901 224.871C201.869 223.977 199.352 221.042 198.209 219.685C197.066 218.328 193.148 213.521 193.148 213.521L196.667 220.438C196.667 220.438 201.745 225.953 202.643 226.502C203.324 226.919 205.074 226.797 205.5 225.099Z" fill="#F28F8F"/>
<path d="M170.452 75.0403C165.699 91.2584 153.094 104.221 112.716 112.024L114.852 123.429L99.3123 114.028C99.0405 114.084 68.8355 115.309 54.3137 107.184C35.8982 96.882 32.3542 72.9615 42.8965 56.1155C51.9783 41.6025 65.5305 32.7853 94.7674 27.0254C126.546 20.7642 151.686 25.5633 163.17 38.3905C173.144 49.5319 172.984 66.4028 170.452 75.0403Z" fill="white"/>
<path d="M114.854 124.192C114.717 124.192 114.58 124.156 114.458 124.082L99.1071 114.795C95.6144 114.941 67.7369 115.567 53.9433 107.851C45.6971 103.237 39.8385 95.5543 37.447 86.2174C34.81 75.923 36.5616 64.804 42.2517 55.7102C52.069 40.0198 66.7528 31.7673 94.6223 26.276C125.881 20.1174 151.722 24.4554 163.741 37.8817C173.911 49.2412 173.766 66.4554 171.187 75.2549C165.436 94.879 148.732 105.735 113.607 112.628L115.604 123.288C115.66 123.584 115.536 123.885 115.288 124.057C115.158 124.146 115.006 124.192 114.854 124.192ZM99.3565 113.255C99.4809 113.255 99.5843 113.299 99.7094 113.375L113.789 121.893L111.966 112.164C111.889 111.751 112.16 111.353 112.572 111.274C155.858 102.909 165.621 88.8119 169.722 74.825C172.205 66.3535 172.357 49.7954 162.603 38.8994C150.946 25.879 125.644 21.7214 94.9167 27.7741C67.5147 33.1732 53.1116 41.2325 43.5454 56.5202C38.0757 65.2612 36.3915 75.9478 38.925 85.8389C41.2132 94.7668 46.8103 102.111 54.6884 106.518C68.9431 114.494 98.9491 113.294 99.2274 113.27C99.2747 113.26 99.3164 113.255 99.3565 113.255Z" fill="#455A64"/>
<path d="M60.2674 61.6486H69.5586C69.7022 61.6486 69.8265 61.5964 69.9307 61.4922C70.0358 61.3879 70.0879 61.2636 70.0879 61.12V59.0421C70.0879 58.8985 70.0358 58.7742 69.9307 58.6699C69.8265 58.5657 69.7022 58.5127 69.5586 58.5127H63.364V56.3177H68.97C69.1135 56.3177 69.2378 56.2655 69.3421 56.1613C69.4471 56.057 69.4993 55.9327 69.4993 55.7883V53.7112C69.4993 53.5676 69.4471 53.4433 69.3421 53.339C69.2378 53.2348 69.1135 53.1818 68.97 53.1818H63.364V51.0646H69.4014C69.545 51.0646 69.6685 51.0124 69.7736 50.9082C69.8778 50.8039 69.9299 50.6796 69.9299 50.536V48.4581C69.9299 48.3145 69.8778 48.1902 69.7736 48.0859C69.6685 47.9817 69.545 47.9287 69.4014 47.9287H60.2666C60.1223 47.9287 59.9988 47.9809 59.8937 48.0859C59.7887 48.1902 59.7373 48.3145 59.7373 48.4581V61.12C59.7373 61.2636 59.7887 61.3879 59.8937 61.4922C59.9996 61.5972 60.1231 61.6486 60.2674 61.6486ZM85.5826 58.5809C85.8641 59.2281 86.2659 59.7935 86.7888 60.2763C87.3109 60.7599 87.9421 61.1425 88.6799 61.4232C89.4177 61.7047 90.2582 61.845 91.199 61.845C92.0611 61.845 92.8615 61.7175 93.6002 61.4625C94.338 61.2083 94.982 60.865 95.5306 60.4335C96.08 60.002 96.5106 59.4928 96.8242 58.9041C97.1378 58.3162 97.3014 57.6891 97.3134 57.0226C97.3134 56.9055 97.2709 56.8045 97.1867 56.7187C97.1017 56.6336 97.0007 56.5911 96.8828 56.5911H94.3148C94.0926 56.5911 93.9426 56.6336 93.864 56.7187C93.7854 56.8037 93.7133 56.9512 93.6483 57.1598C93.5954 57.317 93.5216 57.487 93.4229 57.6698C93.3251 57.8527 93.1847 58.0195 93.0019 58.1695C92.819 58.3203 92.584 58.4478 92.2961 58.552C92.009 58.6571 91.6433 58.7092 91.199 58.7092C90.7539 58.7092 90.3818 58.6475 90.081 58.5232C89.7803 58.3988 89.5324 58.2328 89.3359 58.0235C89.1403 57.8142 88.9959 57.5728 88.9053 57.2985C88.8138 57.0242 88.7545 56.7363 88.728 56.4356C88.7152 56.2663 88.7056 56.0273 88.6992 55.7202C88.6919 55.4138 88.6887 55.1002 88.6887 54.7794C88.6887 54.4586 88.6919 54.149 88.6992 53.8483C88.7056 53.5475 88.716 53.3126 88.728 53.1425C88.7545 52.8426 88.813 52.5547 88.9053 52.2804C88.9959 52.0061 89.1403 51.7639 89.3359 51.5554C89.5324 51.3461 89.7803 51.18 90.081 51.0549C90.3818 50.9306 90.7539 50.8689 91.199 50.8689C91.6433 50.8689 92.009 50.921 92.2961 51.0253C92.5832 51.1303 92.819 51.2578 93.0019 51.4078C93.1855 51.5586 93.3251 51.7254 93.4229 51.9083C93.5216 52.0911 93.5962 52.2611 93.6483 52.4175C93.7141 52.6269 93.7862 52.7736 93.864 52.8586C93.9426 52.9436 94.0918 52.9862 94.3148 52.9862H96.8828C96.9999 52.9862 97.1009 52.9436 97.1867 52.8586C97.2709 52.7744 97.3134 52.6726 97.3134 52.5547C97.3006 51.8882 97.137 51.261 96.8242 50.6732C96.5098 50.0853 96.0792 49.5752 95.5306 49.1446C94.9812 48.7131 94.338 48.3706 93.6002 48.1156C92.8615 47.8606 92.0611 47.7331 91.199 47.7331C90.2582 47.7331 89.4145 47.8734 88.6703 48.1541C87.9252 48.4348 87.2949 48.8174 86.7792 49.301C86.2627 49.7846 85.8609 50.35 85.5738 50.9964C85.2866 51.6436 85.1295 52.3261 85.103 53.0447C85.0773 53.6069 85.0637 54.1948 85.0637 54.8091C85.0637 55.4234 85.0773 55.9985 85.103 56.5342C85.1415 57.252 85.3011 57.9345 85.5826 58.5809ZM105.252 51.0638H108.703V61.12C108.703 61.2636 108.755 61.3879 108.859 61.4922C108.964 61.5964 109.088 61.6486 109.232 61.6486H111.8C111.944 61.6486 112.067 61.5964 112.172 61.4922C112.276 61.3879 112.328 61.2636 112.328 61.12V51.0638H115.779C115.923 51.0638 116.047 51.0116 116.152 50.9074C116.256 50.8031 116.308 50.6788 116.308 50.5352V48.4573C116.308 48.3137 116.256 48.1894 116.152 48.0851C116.047 47.9809 115.923 47.9279 115.779 47.9279H105.252C105.109 47.9279 104.985 47.9801 104.88 48.0851C104.775 48.1894 104.724 48.3137 104.724 48.4573V50.5352C104.724 50.6788 104.775 50.8031 104.88 50.9074C104.985 51.0116 105.109 51.0638 105.252 51.0638ZM138.684 58.5809C138.965 59.2281 139.367 59.7935 139.89 60.2763C140.412 60.7599 141.043 61.1425 141.781 61.4232C142.519 61.7047 143.359 61.845 144.3 61.845C145.162 61.845 145.963 61.7207 146.701 61.4729C147.439 61.2243 148.083 60.8682 148.632 60.4038C149.181 59.9403 149.612 59.3749 149.925 58.7084C150.239 58.042 150.395 57.2905 150.395 56.454V53.9453C150.395 53.8018 150.344 53.6775 150.239 53.5732C150.134 53.469 150.01 53.4168 149.867 53.4168H145.123C144.979 53.4168 144.855 53.469 144.75 53.5732C144.646 53.6783 144.594 53.8018 144.594 53.9453V56.0233C144.594 56.1677 144.646 56.2912 144.75 56.3955C144.855 56.5005 144.979 56.5526 145.123 56.5526H146.77C146.77 56.9448 146.705 57.2777 146.574 57.5519C146.443 57.8262 146.267 58.0492 146.045 58.2184C145.822 58.3884 145.562 58.5127 145.261 58.5905C144.96 58.6691 144.641 58.7084 144.301 58.7084C143.87 58.7084 143.501 58.6467 143.193 58.5224C142.886 58.398 142.638 58.232 142.448 58.0227C142.259 57.8134 142.115 57.572 142.017 57.2977C141.919 57.0234 141.857 56.7355 141.831 56.4347C141.818 56.2655 141.805 56.0265 141.792 55.7194C141.779 55.413 141.772 55.0994 141.772 54.7786C141.772 54.4578 141.776 54.1482 141.783 53.8475C141.789 53.5467 141.805 53.3118 141.832 53.1417C141.871 52.8418 141.937 52.5539 142.028 52.2796C142.119 52.0053 142.26 51.7631 142.449 51.5546C142.638 51.3453 142.883 51.1792 143.184 51.0541C143.485 50.9298 143.857 50.8681 144.301 50.8681C144.941 50.8681 145.418 50.9659 145.732 51.1616C146.045 51.3581 146.293 51.5738 146.477 51.8088C146.581 51.9267 146.689 52.0438 146.8 52.1617C146.911 52.2796 147.065 52.3381 147.26 52.3381H149.868C149.985 52.3381 150.089 52.2956 150.181 52.2106C150.273 52.1264 150.312 52.0246 150.298 51.9075C150.273 51.4632 150.115 50.9956 149.828 50.5056C149.54 50.0155 149.143 49.5648 148.633 49.1526C148.123 48.7412 147.503 48.4011 146.77 48.1332C146.039 47.8654 145.216 47.7314 144.301 47.7314C143.36 47.7314 142.517 47.8718 141.772 48.1525C141.027 48.4332 140.397 48.8158 139.881 49.2994C139.365 49.783 138.963 50.3484 138.676 50.9948C138.389 51.642 138.231 52.3245 138.205 53.0431C138.179 53.6053 138.166 54.1932 138.166 54.8075C138.166 55.4218 138.179 55.9969 138.205 56.5326C138.243 57.252 138.402 57.9345 138.684 58.5809ZM118.603 61.6486H121.17C121.314 61.6486 121.438 61.5964 121.543 61.4922C121.647 61.3879 121.699 61.2636 121.699 61.12V48.4573C121.699 48.3137 121.646 48.1894 121.543 48.0851C121.438 47.9809 121.314 47.9279 121.17 47.9279H118.603C118.458 47.9279 118.335 47.9801 118.23 48.0851C118.125 48.1894 118.073 48.3137 118.073 48.4573V61.12C118.073 61.2636 118.125 61.3879 118.23 61.4922C118.335 61.5972 118.458 61.6486 118.603 61.6486ZM124.973 61.6486H127.54C127.684 61.6486 127.808 61.5964 127.913 61.4922C128.017 61.3879 128.069 61.2636 128.069 61.12V54.4947L132.558 61.1986C132.597 61.2636 132.686 61.355 132.823 61.4729C132.96 61.59 133.14 61.6494 133.362 61.6494H135.4C135.545 61.6494 135.668 61.5972 135.773 61.493C135.878 61.3887 135.93 61.2644 135.93 61.1208V48.4573C135.93 48.3137 135.878 48.1894 135.773 48.0851C135.668 47.9809 135.545 47.9279 135.4 47.9279H132.833C132.689 47.9279 132.565 47.9801 132.46 48.0851C132.355 48.1894 132.304 48.3137 132.304 48.4573V55.0826L127.815 48.3787C127.776 48.3129 127.688 48.2215 127.55 48.1044C127.413 47.9873 127.233 47.9279 127.011 47.9279H124.973C124.828 47.9279 124.705 47.9801 124.6 48.0851C124.495 48.1894 124.443 48.3137 124.443 48.4573V61.12C124.443 61.2636 124.495 61.3879 124.6 61.4922C124.705 61.5972 124.828 61.6486 124.973 61.6486ZM84.5239 61.5218C84.6082 61.4368 84.6507 61.3358 84.6507 61.2179C84.6507 61.1914 84.6475 61.1625 84.641 61.1297C84.6338 61.0976 84.6178 61.0543 84.5921 61.0021L80.1033 54.7497L84.455 48.5752C84.4943 48.4966 84.5135 48.4252 84.5135 48.3594C84.5135 48.2415 84.471 48.1405 84.386 48.0555C84.3018 47.9704 84.2007 47.9279 84.082 47.9279H81.0834C80.8219 47.9279 80.6326 47.9937 80.5147 48.1244C80.3976 48.2552 80.3126 48.353 80.2605 48.4188L77.9676 51.731L75.5961 48.4188C75.5439 48.3538 75.4581 48.2552 75.341 48.1244C75.224 47.9937 75.0339 47.9279 74.7724 47.9279H71.813C71.696 47.9279 71.5949 47.9704 71.5091 48.0555C71.4249 48.1405 71.3824 48.2415 71.3824 48.3594C71.3824 48.4252 71.4016 48.4966 71.4409 48.5752L75.7725 54.6712L71.2444 61.0029C71.2188 61.0551 71.2019 61.0984 71.1955 61.1305C71.1883 61.1633 71.1851 61.1922 71.1851 61.2187C71.1851 61.3358 71.2276 61.4376 71.3126 61.5226C71.3968 61.6076 71.4987 61.6502 71.6166 61.6502H74.596C74.8574 61.6502 75.0371 61.6044 75.1349 61.513C75.2336 61.4216 75.321 61.3165 75.3996 61.1994L77.909 57.6714L80.4369 61.1994C80.5155 61.3165 80.6038 61.4216 80.7016 61.513C80.7995 61.6044 80.9799 61.6502 81.2406 61.6502H84.2208C84.3379 61.6486 84.4389 61.6068 84.5239 61.5218ZM102.429 47.9279H99.8622C99.7178 47.9279 99.5943 47.9801 99.4893 48.0851C99.3842 48.1894 99.3329 48.3137 99.3329 48.4573V61.12C99.3329 61.2636 99.3842 61.3879 99.4893 61.4922C99.5943 61.5964 99.7178 61.6486 99.8622 61.6486H102.429C102.574 61.6486 102.697 61.5964 102.802 61.4922C102.907 61.3879 102.959 61.2636 102.959 61.12V48.4573C102.959 48.3137 102.907 48.1894 102.802 48.0851C102.698 47.9801 102.574 47.9279 102.429 47.9279ZM78.1745 69.7343H73.8421C73.5983 69.7343 73.3898 69.8225 73.2133 69.999C73.0361 70.1762 72.9487 70.3847 72.9487 70.6277V81.8076L65.3738 70.4954C65.3072 70.3855 65.158 70.2308 64.9263 70.0327C64.6953 69.8346 64.3913 69.7343 64.0168 69.7343H60.577C60.334 69.7343 60.1247 69.8225 59.9483 69.999C59.7718 70.1762 59.6836 70.3847 59.6836 70.6277V91.9962C59.6836 92.2392 59.7718 92.4486 59.9483 92.625C60.1247 92.8022 60.334 92.8897 60.577 92.8897H64.9094C65.1524 92.8897 65.361 92.8022 65.5382 92.625C65.7146 92.4486 65.8029 92.24 65.8029 91.9962V80.8163L73.3769 92.1286C73.4435 92.2392 73.5927 92.3932 73.8237 92.5921C74.0554 92.791 74.3586 92.8897 74.7339 92.8897H78.1737C78.4167 92.8897 78.6252 92.8022 78.8025 92.625C78.9789 92.4486 79.0671 92.24 79.0671 91.9962V70.6277C79.0671 70.3855 78.9789 70.1762 78.8025 69.999C78.6268 69.8233 78.4175 69.7343 78.1745 69.7343ZM128.519 69.7343H124.186C123.966 69.7343 123.756 69.8001 123.558 69.9332C123.359 70.0655 123.228 70.2973 123.161 70.6277L121.044 81.8076L119.092 75.8207C119.048 75.6667 118.948 75.4678 118.794 75.2248C118.64 74.9826 118.364 74.8607 117.967 74.8607H114.858C114.462 74.8607 114.185 74.9818 114.031 75.2248C113.877 75.4678 113.778 75.6659 113.734 75.8207L111.782 81.8076L109.665 70.6277C109.598 70.2965 109.466 70.0655 109.268 69.9332C109.069 69.8009 108.859 69.7343 108.639 69.7343H104.307C104.108 69.7343 103.937 69.8065 103.794 69.9493C103.65 70.0928 103.579 70.2636 103.579 70.4625C103.579 70.5291 103.589 70.6165 103.612 70.7272L107.878 91.6321C107.922 91.9409 108.098 92.228 108.408 92.4919C108.716 92.7565 109.091 92.8889 109.532 92.8889H112.277C112.718 92.8889 113.076 92.7565 113.353 92.4919C113.628 92.2272 113.821 91.9409 113.932 91.6321L116.412 84.1567L118.894 91.6321C119.004 91.9409 119.197 92.228 119.473 92.4919C119.749 92.7565 120.106 92.8889 120.548 92.8889H123.293C123.735 92.8889 124.109 92.7565 124.418 92.4919C124.727 92.2272 124.902 91.9409 124.947 91.6321L129.214 70.7272C129.235 70.6173 129.247 70.5291 129.247 70.4625C129.247 70.2644 129.174 70.0936 129.032 69.9493C128.888 69.8065 128.717 69.7343 128.519 69.7343ZM150.797 83.3138C150.499 82.5527 150.047 81.891 149.441 81.3288C148.834 80.7666 148.079 80.2983 147.175 79.9229C146.271 79.5484 145.213 79.2396 143.999 78.9966C142.787 78.7544 141.772 78.5451 140.957 78.3687C140.14 78.1922 139.485 78.0102 138.989 77.8225C138.492 77.6356 138.139 77.4311 137.931 77.2106C137.721 76.9908 137.616 76.7141 137.616 76.3837C137.616 76.0533 137.709 75.7774 137.897 75.5568C138.084 75.3371 138.327 75.1655 138.624 75.0444C138.923 74.9233 139.264 74.835 139.65 74.7797C140.035 74.7252 140.438 74.6971 140.857 74.6971C141.431 74.6971 141.916 74.758 142.313 74.8791C142.709 75.0002 143.04 75.1438 143.305 75.309C143.569 75.475 143.772 75.6346 143.917 75.7886C144.06 75.9434 144.165 76.0533 144.231 76.1198C144.429 76.2963 144.623 76.4286 144.81 76.5168C144.997 76.605 145.246 76.6492 145.555 76.6492H149.888C150.064 76.6492 150.224 76.5778 150.367 76.4342C150.511 76.2915 150.582 76.1198 150.582 75.9217C150.561 75.216 150.306 74.4773 149.822 73.7058C149.337 72.9343 148.664 72.2285 147.803 71.5885C146.944 70.9493 145.923 70.4256 144.745 70.0174C143.564 69.61 142.269 69.4055 140.857 69.4055C139.424 69.4055 138.129 69.5988 136.971 69.9845C135.813 70.3703 134.825 70.894 134.011 71.5557C133.194 72.2173 132.572 72.9776 132.142 73.8382C131.712 74.6987 131.496 75.6025 131.496 76.5505C131.496 78.4472 132.019 79.963 133.067 81.0987C134.115 82.2343 135.774 83.0451 138.045 83.5303C139.258 83.795 140.311 84.0155 141.204 84.192C142.097 84.3684 142.83 84.5505 143.404 84.7381C143.977 84.9258 144.407 85.1295 144.693 85.3501C144.98 85.5706 145.123 85.8465 145.123 86.1769C145.123 86.8386 144.732 87.2965 143.949 87.5491C143.165 87.8026 142.19 87.9301 141.022 87.9301C140.361 87.9301 139.803 87.8531 139.352 87.6983C138.9 87.5443 138.525 87.3623 138.227 87.1521C137.93 86.9428 137.693 86.7383 137.516 86.5402C137.339 86.3413 137.207 86.1986 137.119 86.1104C136.942 85.9564 136.766 85.8409 136.59 85.7631C136.413 85.6861 136.171 85.6476 135.862 85.6476H131.529C131.353 85.6476 131.193 85.719 131.05 85.8625C130.905 86.0061 130.835 86.1769 130.835 86.375C130.856 87.2131 131.121 88.04 131.629 88.8556C132.135 89.672 132.836 90.4051 133.729 91.0555C134.622 91.7067 135.685 92.2296 136.92 92.6266C138.155 93.0236 139.522 93.2225 141.022 93.2225C142.499 93.2225 143.861 93.0573 145.107 92.7261C146.353 92.3948 147.434 91.9152 148.349 91.2865C149.264 90.6577 149.974 89.903 150.482 89.0208C150.99 88.1394 151.243 87.1353 151.243 86.0109C151.244 84.9723 151.095 84.0741 150.797 83.3138ZM100.271 87.5973H89.8187V83.8928H99.2791C99.5213 83.8928 99.7307 83.8046 99.9071 83.6282C100.084 83.4517 100.172 83.2424 100.172 82.9994V79.4931C100.172 79.2509 100.084 79.0415 99.9071 78.8651C99.7299 78.6886 99.5213 78.6004 99.2791 78.6004H89.8187V75.0275H100.007C100.249 75.0275 100.458 74.9401 100.635 74.7629C100.811 74.5864 100.899 74.3771 100.899 74.1341V70.6277C100.899 70.3855 100.811 70.1762 100.635 69.999C100.457 69.8225 100.249 69.7343 100.007 69.7343H84.5921C84.3491 69.7343 84.139 69.8225 83.9633 69.999C83.7869 70.1762 83.6987 70.3847 83.6987 70.6277V91.9962C83.6987 92.2392 83.7869 92.4486 83.9633 92.625C84.1398 92.8022 84.3491 92.8897 84.5921 92.8897H100.271C100.513 92.8897 100.723 92.8022 100.899 92.625C101.076 92.4486 101.164 92.24 101.164 91.9962V88.4899C101.164 88.2477 101.076 88.0384 100.899 87.8611C100.723 87.6855 100.513 87.5973 100.271 87.5973Z" fill="#429EBD"/>
<path d="M152.484 48.1955L171.788 27.6562L186.997 32.5075L152.484 48.1955Z" fill="#7F468D"/>
<path d="M150.504 44.8435L163.52 26.7793L153.971 27.797L150.504 44.8435Z" fill="#7F468D"/>
<path d="M155.387 50.1219L181.879 45.3877L178.411 53.4791L155.387 50.1219Z" fill="#7F468D"/>
<path d="M56.7226 93.7168L37.4201 114.255L22.2109 109.404L56.7226 93.7168Z" fill="#7F468D"/>
<path d="M58.7032 97.0693L45.6875 115.133L55.2353 114.116L58.7032 97.0693Z" fill="#7F468D"/>
<path d="M53.8245 91.7906L27.332 96.524L30.7991 88.4326L53.8245 91.7906Z" fill="#7F468D"/>
<path d="M156.503 71.0916C156.43 71.0916 156.371 71.0162 156.366 70.9232C156.282 69.5686 155.199 68.4851 153.844 68.4017C153.751 68.3961 153.676 68.3375 153.676 68.2645C153.676 68.1916 153.751 68.133 153.844 68.1274C155.199 68.044 156.282 66.9605 156.366 65.6059C156.371 65.5129 156.43 65.4375 156.503 65.4375C156.576 65.4375 156.634 65.5129 156.64 65.6059C156.723 66.9605 157.807 68.044 159.161 68.1274C159.254 68.133 159.33 68.1916 159.33 68.2645C159.33 68.3375 159.254 68.3961 159.161 68.4017C157.807 68.4851 156.723 69.5686 156.64 70.9232C156.634 71.0154 156.576 71.0916 156.503 71.0916Z" fill="#7F468D"/>
<path d="M131.098 40.9602C131.024 40.9602 130.964 40.8832 130.958 40.7877C130.873 39.4027 129.765 38.2943 128.379 38.2093C128.285 38.2037 128.207 38.1435 128.207 38.0689C128.207 37.9944 128.284 37.9342 128.379 37.9286C129.765 37.8436 130.873 36.7352 130.958 35.3502C130.964 35.2555 131.024 35.1777 131.098 35.1777C131.173 35.1777 131.233 35.2547 131.239 35.3502C131.324 36.7352 132.432 37.8436 133.817 37.9286C133.912 37.9342 133.989 37.9944 133.989 38.0689C133.989 38.1435 133.912 38.2037 133.818 38.2093C132.433 38.2943 131.324 39.4027 131.239 40.7877C131.232 40.8824 131.173 40.9602 131.098 40.9602Z" fill="#7F468D"/>
<path d="M51.1555 73.5003C51.0793 73.5003 51.0176 73.4217 51.0119 73.3238C50.9245 71.9051 49.7897 70.7703 48.3718 70.6828C48.2747 70.6772 48.1953 70.6155 48.1953 70.5393C48.1953 70.4631 48.2747 70.4013 48.3718 70.3957C49.7905 70.3083 50.9253 69.1735 51.0127 67.7555C51.0184 67.6585 51.0801 67.5791 51.1563 67.5791C51.2325 67.5791 51.2942 67.6585 51.2999 67.7555C51.3873 69.1743 52.5221 70.3091 53.94 70.3965C54.0371 70.4021 54.1165 70.4639 54.1165 70.5401C54.1165 70.6163 54.0371 70.678 53.94 70.6836C52.5213 70.7711 51.3865 71.9059 51.2991 73.3238C51.2926 73.4209 51.2317 73.5003 51.1555 73.5003Z" fill="#7F468D"/>
<path d="M53.1973 84.6377C53.1444 84.6377 53.1027 84.5831 53.0987 84.5158C53.0385 83.5381 52.2566 82.7554 51.2782 82.6952C51.2116 82.6912 51.1562 82.6487 51.1562 82.5958C51.1562 82.5428 51.2108 82.5011 51.2782 82.4971C52.2558 82.437 53.0385 81.6542 53.0987 80.6766C53.1027 80.6092 53.1452 80.5547 53.1973 80.5547C53.2503 80.5547 53.292 80.6092 53.2968 80.6758C53.3569 81.6534 54.1397 82.4362 55.1173 82.4963C55.1847 82.5003 55.2392 82.5428 55.2392 82.595C55.2392 82.6479 55.1847 82.6896 55.1173 82.6944C54.1397 82.7546 53.3569 83.5365 53.2968 84.515C53.292 84.5831 53.2495 84.6377 53.1973 84.6377Z" fill="#7F468D"/>
<path d="M124.004 42.9343C123.968 42.9343 123.939 42.8966 123.936 42.8509C123.894 42.1788 123.357 41.6415 122.685 41.5998C122.639 41.5966 122.602 41.5677 122.602 41.5316C122.602 41.4955 122.639 41.4666 122.685 41.4634C123.357 41.4217 123.894 40.8844 123.936 40.2123C123.939 40.1666 123.968 40.1289 124.004 40.1289C124.04 40.1289 124.069 40.1666 124.072 40.2123C124.114 40.8844 124.651 41.4217 125.324 41.4634C125.369 41.4666 125.407 41.4955 125.407 41.5316C125.407 41.5677 125.369 41.5966 125.324 41.5998C124.651 41.6415 124.114 42.1788 124.072 42.8509C124.069 42.8974 124.04 42.9343 124.004 42.9343Z" fill="#7F468D"/>
<path d="M161.052 75.6417C161.018 75.6417 160.992 75.6072 160.988 75.5647C160.95 74.9416 160.451 74.4427 159.828 74.4042C159.785 74.4018 159.75 74.3746 159.75 74.3409C159.75 74.3072 159.784 74.2807 159.827 74.2775C160.45 74.239 160.949 73.7402 160.987 73.1178C160.99 73.0753 161.017 73.04 161.051 73.04C161.085 73.04 161.111 73.0745 161.114 73.1178C161.153 73.741 161.651 74.2398 162.275 74.2783C162.317 74.2807 162.352 74.308 162.352 74.3417C162.352 74.3754 162.318 74.4018 162.275 74.405C161.652 74.4435 161.153 74.9424 161.114 75.5655C161.113 75.6072 161.085 75.6417 161.052 75.6417Z" fill="#7F468D"/>
<path d="M44.1837 78.964C44.1556 78.964 44.1331 78.9351 44.1307 78.8991C44.0987 78.377 43.6808 77.9591 43.1587 77.927C43.1226 77.9246 43.0938 77.9022 43.0938 77.8741C43.0938 77.846 43.1226 77.8236 43.1587 77.8212C43.6808 77.7891 44.0987 77.3712 44.1307 76.8491C44.1331 76.8131 44.1556 76.7842 44.1837 76.7842C44.2117 76.7842 44.2342 76.8131 44.2366 76.8491C44.2687 77.3712 44.6865 77.7891 45.2086 77.8212C45.2447 77.8236 45.2736 77.846 45.2736 77.8741C45.2736 77.9022 45.2447 77.9246 45.2086 77.927C44.6865 77.9591 44.2687 78.377 44.2366 78.8991C44.235 78.9343 44.2117 78.964 44.1837 78.964Z" fill="#7F468D"/>
<path d="M273.144 61.0816C273.314 60.8819 273.533 60.7696 273.803 60.7472C274.072 60.7263 274.307 60.8001 274.506 60.9693L277.944 63.891C278.145 64.0618 278.255 64.2808 278.278 64.5479C278.3 64.8189 278.226 65.0531 278.056 65.2536L275.715 68.0085C275.544 68.209 275.325 68.3205 275.056 68.3397C274.787 68.3638 274.554 68.2892 274.353 68.1192L270.915 65.1975C270.715 65.0283 270.604 64.8093 270.582 64.539C270.56 64.2704 270.634 64.0362 270.804 63.8357L273.144 61.0816ZM285.778 46.2117C285.948 46.012 286.166 45.9014 286.436 45.8789C286.706 45.8564 286.941 45.931 287.14 46.1003L290.578 49.0219C290.779 49.1928 290.889 49.4117 290.91 49.6804C290.934 49.9515 290.858 50.1856 290.689 50.3845L280.697 62.1435C280.527 62.3432 280.308 62.4546 280.038 62.4755C279.769 62.4979 279.536 62.4242 279.335 62.2533L275.897 59.3316C275.698 59.1624 275.587 58.9435 275.564 58.674C275.541 58.4045 275.616 58.1704 275.785 57.9707L285.778 46.2117Z" fill="#F7AD19"/>
<path d="M263.063 50.5818C263.105 50.3227 263.236 50.115 263.456 49.957C263.677 49.7998 263.916 49.7429 264.173 49.7862L268.624 50.524C268.884 50.5673 269.092 50.6988 269.248 50.9178C269.406 51.1391 269.464 51.3773 269.421 51.6356L268.829 55.2037C268.786 55.4635 268.656 55.6704 268.435 55.8276C268.217 55.9848 267.977 56.0418 267.718 55.9985L263.267 55.2606C263.008 55.2181 262.801 55.0874 262.643 54.8668C262.485 54.6479 262.429 54.4089 262.47 54.1499L263.063 50.5818ZM266.253 31.333C266.296 31.0747 266.427 30.867 266.647 30.709C266.868 30.5518 267.106 30.4941 267.363 30.5374L271.814 31.2752C272.074 31.3185 272.283 31.45 272.438 31.669C272.598 31.8887 272.653 32.1277 272.611 32.386L270.087 47.6095C270.045 47.8686 269.914 48.0771 269.692 48.2335C269.474 48.3907 269.235 48.4476 268.975 48.4043L264.524 47.6665C264.267 47.6232 264.059 47.4925 263.9 47.2735C263.744 47.0538 263.686 46.8156 263.729 46.5557L266.253 31.333Z" fill="#F7AD19"/>
<g opacity="0.3">
<path d="M263.063 50.5818C263.105 50.3227 263.236 50.115 263.456 49.957C263.677 49.7998 263.916 49.7429 264.173 49.7862L268.624 50.524C268.884 50.5673 269.092 50.6988 269.248 50.9178C269.406 51.1391 269.464 51.3773 269.421 51.6356L268.829 55.2037C268.786 55.4635 268.656 55.6704 268.435 55.8276C268.217 55.9848 267.977 56.0418 267.718 55.9985L263.267 55.2606C263.008 55.2181 262.801 55.0874 262.643 54.8668C262.485 54.6479 262.429 54.4089 262.47 54.1499L263.063 50.5818ZM266.253 31.333C266.296 31.0747 266.427 30.867 266.647 30.709C266.868 30.5518 267.106 30.4941 267.363 30.5374L271.814 31.2752C272.074 31.3185 272.283 31.45 272.438 31.669C272.598 31.8887 272.653 32.1277 272.611 32.386L270.087 47.6095C270.045 47.8686 269.914 48.0771 269.692 48.2335C269.474 48.3907 269.235 48.4476 268.975 48.4043L264.524 47.6665C264.267 47.6232 264.059 47.4925 263.9 47.2735C263.744 47.0538 263.686 46.8156 263.729 46.5557L266.253 31.333Z" fill="white"/>
</g>
<path d="M355.993 143.253C355.785 143.263 355.592 143.121 355.547 142.91L352.365 128.379C352.341 128.266 352.362 128.147 352.424 128.05C352.486 127.952 352.585 127.884 352.697 127.86L357.508 126.807C357.748 126.751 357.976 126.905 358.028 127.139L361.21 141.67C361.234 141.783 361.213 141.902 361.151 141.999C361.089 142.096 360.99 142.165 360.878 142.189L356.066 143.242C356.041 143.249 356.017 143.251 355.993 143.253ZM353.311 128.618L356.305 142.297L360.264 141.431L357.27 127.752L353.311 128.618ZM362.024 140.167C361.816 140.178 361.624 140.036 361.578 139.825L358.844 127.338C358.825 127.253 358.833 127.164 358.865 127.083C359.683 125.035 360.932 121.792 361.022 121.249C361.105 120.748 360.516 118.646 360.265 117.75C360.16 117.376 360.078 117.083 360.047 116.94C360.007 116.759 359.997 116.304 360.749 115.977C361.696 115.563 363.61 115.504 364.724 117.106C365.943 118.857 366.49 120.495 366.508 122.491L372.645 121.148C374.287 120.782 375.386 122.123 375.608 123.138C375.8 124.013 375.561 124.698 375.287 125.154C375.856 125.392 376.479 125.911 376.697 126.909C376.881 127.741 376.598 128.835 375.759 129.482C375.952 129.762 376.167 130.183 376.298 130.778C376.462 131.535 375.951 132.876 375.05 133.436C375.196 133.719 375.364 134.117 375.468 134.59C375.733 135.801 374.919 137.35 373.141 137.74L362.097 140.158C362.072 140.163 362.048 140.166 362.024 140.167ZM359.724 127.282L362.336 139.211L372.953 136.888C374.166 136.622 374.792 135.581 374.616 134.777C374.451 134.019 374.073 133.493 374.069 133.488C373.983 133.37 373.962 133.214 374.014 133.077C374.066 132.94 374.184 132.837 374.328 132.805C374.995 132.659 375.557 131.481 375.445 130.964C375.251 130.077 374.839 129.735 374.822 129.721C374.704 129.627 374.642 129.475 374.661 129.325C374.679 129.175 374.772 129.044 374.91 128.981C375.707 128.618 375.987 127.739 375.845 127.095C375.582 125.892 374.558 125.853 374.515 125.852C374.338 125.848 374.181 125.738 374.119 125.572C374.055 125.407 374.098 125.22 374.226 125.099C374.405 124.931 374.971 124.305 374.756 123.324C374.638 122.779 374.003 121.742 372.831 121.998L366.156 123.459C366.023 123.49 365.885 123.454 365.783 123.368C365.679 123.281 365.622 123.152 365.627 123.017C365.705 120.966 365.221 119.347 364.007 117.603C363.418 116.756 362.551 116.613 362.085 116.602C361.502 116.588 361.075 116.76 360.926 116.867C360.964 117.017 361.028 117.242 361.104 117.512C361.575 119.192 361.988 120.751 361.883 121.391C361.755 122.157 360.086 126.373 359.724 127.282Z" fill="#E0E0E0"/>
<path d="M48.8373 332.383L43.1239 331.133C42.99 331.104 42.8729 331.022 42.7991 330.907C42.7261 330.791 42.7004 330.65 42.7301 330.516L46.5075 313.26C46.5693 312.981 46.8396 312.799 47.1243 312.866L52.8377 314.116C52.9717 314.145 53.0887 314.227 53.1625 314.342C53.2355 314.458 53.2612 314.599 53.2323 314.733L49.4549 331.989C49.3995 332.239 49.1718 332.407 48.9248 332.395C48.8951 332.394 48.8662 332.391 48.8373 332.383ZM47.4066 313.988L43.8513 330.232L48.5534 331.261L52.1087 315.017L47.4066 313.988ZM41.6755 328.72L28.5612 325.849C26.4495 325.386 25.4823 323.547 25.7967 322.109C25.9202 321.547 26.1199 321.074 26.2939 320.738C25.2225 320.073 24.6161 318.481 24.8118 317.582C24.9666 316.875 25.2217 316.375 25.4518 316.043C24.4549 315.273 24.1189 313.974 24.337 312.986C24.5961 311.802 25.3363 311.186 26.0116 310.903C25.6868 310.362 25.4029 309.549 25.6307 308.509C25.8953 307.303 27.2002 305.71 29.1507 306.145L36.4384 307.74C36.4601 305.37 37.1097 303.424 38.5565 301.345C39.8798 299.444 42.1527 299.513 43.2771 300.004C44.1705 300.393 44.1577 300.934 44.1112 301.149C44.0743 301.319 43.9772 301.666 43.8521 302.11C43.5538 303.176 42.8536 305.671 42.9531 306.266C43.0589 306.91 44.5442 310.762 45.5147 313.195C45.5532 313.29 45.5612 313.397 45.5395 313.498L42.293 328.325C42.2385 328.575 42.0099 328.744 41.7629 328.732C41.7332 328.73 41.7052 328.727 41.6755 328.72ZM41.9297 306.437C41.8038 305.677 42.2946 303.825 42.8544 301.831C42.9451 301.509 43.0196 301.242 43.0662 301.064C42.8889 300.937 42.382 300.733 41.6883 300.75C41.1357 300.763 40.1068 300.933 39.4066 301.939C37.9654 304.009 37.3904 305.932 37.4826 308.367C37.489 308.528 37.4201 308.681 37.2966 308.784C37.1755 308.886 37.0119 308.93 36.8539 308.894L28.9269 307.158C27.5354 306.853 26.7823 308.085 26.6412 308.733C26.3862 309.898 27.0582 310.64 27.2708 310.841C27.4231 310.985 27.4737 311.207 27.3983 311.403C27.3237 311.599 27.1384 311.729 26.9275 311.734C26.8762 311.736 25.6603 311.782 25.3476 313.21C25.1791 313.974 25.5112 315.018 26.4583 315.45C26.6219 315.524 26.7318 315.68 26.7543 315.858C26.7775 316.036 26.7029 316.217 26.5626 316.329C26.5425 316.345 26.0533 316.75 25.8224 317.804C25.6892 318.417 26.3573 319.817 27.1489 319.99C27.3197 320.027 27.46 320.15 27.5218 320.312C27.5843 320.475 27.5595 320.66 27.4576 320.802C27.4528 320.808 27.0045 321.433 26.808 322.333C26.5995 323.289 27.3429 324.524 28.7825 324.84L41.3916 327.599L44.4929 313.433C44.063 312.35 42.0813 307.343 41.9297 306.437Z" fill="#E0E0E0"/>
<path d="M343.655 226.332C343.655 226.332 342.617 220.477 342.652 219.623C342.685 218.769 344.4 215.709 344.659 215.129C344.918 214.549 342.26 213.102 340.452 214.815C338.643 216.529 337.794 218.237 337.427 220.421L330.723 217.427C329.308 216.795 328.145 217.841 327.789 218.639C327.287 219.762 327.737 220.702 328.002 221.081C328.002 221.081 326.515 220.809 325.819 222.367C325.431 223.237 325.626 224.455 326.544 225.125C326.544 225.125 325.883 225.439 325.397 226.525C325.073 227.25 325.465 228.903 326.407 229.324C326.407 229.324 325.826 229.847 325.438 230.717C324.968 231.769 325.514 233.273 326.964 233.921C328.414 234.569 338.055 238.874 338.055 238.874L343.655 226.332Z" fill="#E0E0E0"/>
<path d="M338.891 241.278L343.731 243.436L350.241 228.84L345.411 226.683L338.891 241.278ZM341.373 240.085C341.373 239.56 341.793 239.14 342.318 239.14C342.842 239.14 343.262 239.56 343.262 240.085C343.262 240.61 342.842 241.03 342.318 241.03C341.793 241.03 341.373 240.61 341.373 240.085Z" fill="#E0E0E0"/>
<path d="M36.4787 145.187C36.4787 145.187 37.5165 139.332 37.482 138.478C37.4484 137.624 35.7337 134.563 35.4746 133.983C35.2156 133.404 37.8734 131.956 39.6827 133.67C41.4912 135.384 42.3406 137.091 42.7079 139.275L49.4118 136.281C50.8265 135.649 51.9894 136.696 52.3455 137.493C52.8476 138.617 52.3976 139.557 52.1322 139.936C52.1322 139.936 53.6191 139.663 54.3152 141.221C54.7042 142.092 54.5085 143.309 53.591 143.98C53.591 143.98 54.2527 144.293 54.7379 145.381C55.0619 146.106 54.6697 147.759 53.7273 148.18C53.7273 148.18 54.3088 148.703 54.697 149.573C55.1661 150.624 54.6208 152.128 53.1708 152.776C51.7207 153.424 42.0791 157.729 42.0791 157.729L36.4787 145.187Z" fill="#E0E0E0"/>
<path d="M34.7211 145.538L29.8906 147.695L36.4013 162.291L41.2413 160.134L34.7211 145.538ZM37.8144 159.885C37.2891 159.885 36.8696 159.465 36.8696 158.94C36.8696 158.416 37.2899 157.996 37.8144 157.996C38.3397 157.996 38.7591 158.416 38.7591 158.94C38.7591 159.465 38.3397 159.885 37.8144 159.885Z" fill="#E0E0E0"/>
</g>
<defs>
<clipPath id="clip0_247_7653">
<rect width="401" height="401" fill="white"/>
</clipPath>
</defs>
</svg>
