<svg width="390" height="385" viewBox="0 0 390 385" fill="none" xmlns="http://www.w3.org/2000/svg">
<path d="M195.822 384.128C311.151 384.128 404.644 330.15 404.644 263.564C404.644 196.978 311.151 143 195.822 143C80.4928 143 -13 196.978 -13 263.564C-13 330.15 80.4928 384.128 195.822 384.128Z" fill="#F5F5F5"/>
<path d="M236.592 353.707C261.532 353.707 281.75 342.034 281.75 327.635C281.75 313.235 261.532 301.562 236.592 301.562C211.652 301.562 191.434 313.235 191.434 327.635C191.434 342.034 211.652 353.707 236.592 353.707Z" fill="#E0E0E0"/>
<path d="M213.123 239.36L92.3333 309.11C88.9353 311.072 82.9993 310.826 79.0753 308.56L36.1913 283.801C32.2673 281.535 31.8413 278.108 35.2393 276.146L156.029 206.396C159.427 204.434 165.363 204.68 169.287 206.946L212.171 231.705C216.095 233.97 216.522 237.398 213.123 239.36Z" fill="#E0E0E0"/>
<path d="M343.183 263.715L352.698 269.242C352.698 269.242 347.897 253.916 350.562 238.499C351.568 232.68 353.685 229.789 354.432 228.236C355.179 226.683 360.916 217.067 355.866 212.634C350.816 208.201 338.967 217.019 339.498 240.764C339.77 252.949 343.183 263.715 343.183 263.715Z" fill="#08979D"/>
<path opacity="0.5" d="M343.183 263.715L352.698 269.242C352.698 269.242 347.897 253.916 350.562 238.499C351.568 232.68 353.685 229.789 354.432 228.236C355.179 226.683 360.916 217.067 355.866 212.634C350.816 208.201 338.967 217.019 339.498 240.764C339.77 252.949 343.183 263.715 343.183 263.715Z" fill="black"/>
<path d="M347.606 266.716C347.43 266.716 347.265 266.608 347.201 266.433C347.165 266.334 343.567 256.343 343.757 240.32C343.947 224.2 352.418 215.604 352.504 215.519C352.672 215.352 352.946 215.351 353.113 215.521C353.281 215.69 353.281 215.963 353.112 216.131C353.029 216.213 344.805 224.582 344.62 240.329C344.432 256.181 347.975 266.037 348.012 266.135C348.094 266.359 347.979 266.607 347.755 266.689C347.706 266.708 347.656 266.716 347.606 266.716Z" fill="white"/>
<path d="M350.563 268.032L366.281 277.276C366.281 277.276 373.478 276.216 372.933 269.441C372.388 262.666 369.464 261.07 373.105 258.093C376.746 255.116 377.686 254.919 377.512 252.001C377.338 249.083 375.375 247.811 374.451 246.655C373.528 245.499 370.953 243.073 372.765 239.554C374.577 236.035 377.031 232.636 373.386 231.023C371.211 230.06 367.552 231.266 365.127 233.841C362.702 236.416 360.701 238.266 358.404 238.864C356.106 239.462 351.316 239.509 351.477 243.468C351.638 247.427 352.666 248.794 351.706 250.551C349.897 253.862 342.171 255.646 350.563 268.032Z" fill="#08979D"/>
<path opacity="0.2" d="M350.563 268.032L366.281 277.276C366.281 277.276 373.478 276.216 372.933 269.441C372.388 262.666 369.464 261.07 373.105 258.093C376.746 255.116 377.686 254.919 377.512 252.001C377.338 249.083 375.375 247.811 374.451 246.655C373.528 245.499 370.953 243.073 372.765 239.554C374.577 236.035 377.031 232.636 373.386 231.023C371.211 230.06 367.552 231.266 365.127 233.841C362.702 236.416 360.701 238.266 358.404 238.864C356.106 239.462 351.316 239.509 351.477 243.468C351.638 247.427 352.666 248.794 351.706 250.551C349.897 253.862 342.171 255.646 350.563 268.032Z" fill="black"/>
<path d="M356.963 272.228C356.741 272.228 356.552 272.057 356.533 271.832C356.514 271.597 354.804 248.16 371.087 232.769C371.261 232.605 371.533 232.613 371.697 232.786C371.861 232.959 371.853 233.232 371.68 233.396C355.703 248.497 357.374 271.53 357.394 271.761C357.412 271.999 357.236 272.207 356.998 272.226C356.987 272.227 356.975 272.228 356.963 272.228Z" fill="white"/>
<path d="M359.782 252.143C359.557 252.143 359.368 251.97 359.351 251.743C358.895 245.595 354.617 242.431 354.573 242.4C354.381 242.26 354.337 241.991 354.476 241.797C354.614 241.605 354.883 241.559 355.078 241.699C355.267 241.836 359.725 245.115 360.213 251.679C360.231 251.916 360.052 252.123 359.815 252.141C359.803 252.142 359.792 252.143 359.782 252.143Z" fill="white"/>
<path d="M358.623 256.142C358.519 256.142 358.417 256.105 358.334 256.031C358.157 255.872 358.143 255.6 358.302 255.423C358.472 255.233 362.57 250.803 372.048 252.105C372.284 252.138 372.449 252.356 372.417 252.591C372.384 252.827 372.167 252.99 371.931 252.96C362.939 251.726 358.983 255.959 358.944 256C358.858 256.094 358.741 256.142 358.623 256.142Z" fill="white"/>
<path d="M54.9447 250.253L50.2457 260.202C50.2457 260.202 45.5037 244.858 34.5617 233.675C30.4317 229.454 27.0487 228.274 25.5517 227.42C24.0547 226.565 13.8757 221.901 15.5187 215.386C17.1617 208.87 31.9227 209.408 44.9567 229.263C51.6477 239.451 54.9447 250.253 54.9447 250.253Z" fill="#08979D"/>
<path opacity="0.5" d="M54.9447 250.253L50.2457 260.202C50.2457 260.202 45.5037 244.858 34.5617 233.675C30.4317 229.454 27.0487 228.274 25.5517 227.42C24.0547 226.565 13.8757 221.901 15.5187 215.386C17.1617 208.87 31.9227 209.408 44.9567 229.263C51.6477 239.451 54.9447 250.253 54.9447 250.253Z" fill="black"/>
<path d="M52.7589 255.31C52.5669 255.31 52.3909 255.181 52.3409 254.986C52.3149 254.885 49.6409 244.758 40.4919 231.812C31.4039 218.95 19.8849 216.725 19.7689 216.704C19.5349 216.661 19.3789 216.437 19.4209 216.202C19.4639 215.968 19.6849 215.813 19.9229 215.854C20.0409 215.875 31.8939 218.147 41.1959 231.313C50.4429 244.4 53.1489 254.668 53.1749 254.771C53.2349 255.002 53.0949 255.237 52.8639 255.296C52.8309 255.306 52.7949 255.31 52.7589 255.31Z" fill="white"/>
<path d="M51.3173 257.995L43.6193 274.526C43.6193 274.526 37.0913 277.737 33.6953 271.849C30.3003 265.961 31.8023 262.988 27.1153 262.602C22.4283 262.217 21.5423 262.587 20.0303 260.086C18.5183 257.585 19.4123 255.423 19.5173 253.947C19.6213 252.471 20.3653 249.013 16.8773 247.143C13.3893 245.273 9.43932 243.867 11.5253 240.471C12.7703 238.444 16.4673 237.361 19.9253 238.105C23.3833 238.849 26.0803 239.238 28.3113 238.426C30.5423 237.614 34.5143 234.936 36.6273 238.287C38.7403 241.639 38.6703 243.347 40.4583 244.25C43.8263 245.95 51.2003 243.034 51.3173 257.995Z" fill="#08979D"/>
<path opacity="0.2" d="M51.3173 257.995L43.6193 274.526C43.6193 274.526 37.0913 277.737 33.6953 271.849C30.3003 265.961 31.8023 262.988 27.1153 262.602C22.4283 262.217 21.5423 262.587 20.0303 260.086C18.5183 257.585 19.4123 255.423 19.5173 253.947C19.6213 252.471 20.3653 249.013 16.8773 247.143C13.3893 245.273 9.43932 243.867 11.5253 240.471C12.7703 238.444 16.4673 237.361 19.9253 238.105C23.3833 238.849 26.0803 239.238 28.3113 238.426C30.5423 237.614 34.5143 234.936 36.6273 238.287C38.7403 241.639 38.6703 243.347 40.4583 244.25C43.8263 245.95 51.2003 243.034 51.3173 257.995Z" fill="black"/>
<path d="M48.1822 265.159C48.0332 265.159 47.8882 265.081 47.8082 264.943C47.6932 264.742 35.9992 244.827 14.2752 241.457C14.0402 241.421 13.8792 241.2 13.9152 240.965C13.9512 240.728 14.1722 240.564 14.4082 240.605C36.5502 244.039 48.4392 264.309 48.5562 264.513C48.6752 264.72 48.6042 264.984 48.3972 265.102C48.3302 265.14 48.2562 265.159 48.1822 265.159Z" fill="white"/>
<path d="M34.4636 250.219C34.3166 250.219 34.1716 250.142 34.0916 250.005C30.7676 244.324 32.5766 239.094 32.6556 238.874C32.7346 238.65 32.9796 238.532 33.2066 238.613C33.4316 238.693 33.5486 238.94 33.4686 239.164C33.4506 239.214 31.7226 244.247 34.8356 249.569C34.9566 249.775 34.8876 250.039 34.6816 250.159C34.6136 250.2 34.5386 250.219 34.4636 250.219Z" fill="white"/>
<path d="M24.8802 257.82C24.7632 257.82 24.6472 257.773 24.5622 257.679C24.4012 257.503 24.4142 257.23 24.5892 257.069C31.6522 250.621 37.5452 251.945 37.7912 252.003C38.0222 252.058 38.1652 252.291 38.1092 252.522C38.0552 252.753 37.8282 252.899 37.5902 252.842C37.5322 252.829 31.8732 251.587 25.1702 257.706C25.0882 257.783 24.9832 257.82 24.8802 257.82Z" fill="white"/>
<path d="M52.288 130.815C52.288 124.887 55.451 119.408 60.585 116.444L166.104 55.523C169.221 53.723 173.002 55.412 173.997 58.583C173.425 56.114 171.885 53.941 169.656 52.613L169.28 52.389C166.654 50.825 163.655 50 160.599 50V50.002C159.671 49.989 158.716 50.217 157.816 50.737L52.297 111.657C47.163 114.621 44 120.099 44 126.028V354.222C44 358.405 48.528 361.019 52.151 358.928L52.288 358.849V130.815Z" fill="#37474F"/>
<path d="M165.955 302.793L60.4362 363.714C56.8132 365.805 52.2852 363.191 52.2852 359.008V130.815C52.2852 124.887 55.4482 119.408 60.5822 116.444L166.101 55.523C169.723 53.432 174.251 56.046 174.251 60.229V288.423C174.252 294.351 171.089 299.829 165.955 302.793Z" fill="#455A64"/>
<path d="M52.288 359.009V130.815C52.288 128.285 52.869 125.838 53.928 123.633L45.769 118.58C44.626 120.854 44 123.396 44 126.028V353.747V354.222V356.128C44 357.97 44.97 359.676 46.553 360.619L50.76 363.124C52.217 363.992 53.882 364.45 55.579 364.45H57.656V364.448C54.846 364.41 52.288 362.153 52.288 359.009Z" fill="#263238"/>
<path d="M162.325 77.4561V269.255C162.325 274.49 159.532 279.328 154.998 281.945L61.8188 335.742C61.0718 336.173 60.2808 336.37 59.5078 336.383C60.5878 338.884 63.7158 340.128 66.3158 338.627L159.495 284.83C164.029 282.212 166.822 277.375 166.822 272.14V82.2421C166.823 79.5571 164.708 77.6141 162.325 77.4561Z" fill="#37474F"/>
<path d="M59.5101 336.384C60.2831 336.371 61.0741 336.174 61.8211 335.743L155 281.946C159.534 279.328 162.327 274.491 162.327 269.256V77.4561C162.765 77.4851 160.928 77.3351 159.627 78.0871L66.4481 131.884C61.9141 134.502 59.1211 139.339 59.1211 144.574V334.473C59.1211 335.175 59.2671 335.826 59.5231 336.409C59.5191 336.401 59.5141 336.393 59.5101 336.384Z" fill="#7F468D"/>
<g opacity="0.5">
<path d="M59.5101 336.384C60.2831 336.371 61.0741 336.174 61.8211 335.743L155 281.946C159.534 279.328 162.327 274.491 162.327 269.256V77.4561C162.765 77.4851 160.928 77.3351 159.627 78.0871L66.4481 131.884C61.9141 134.502 59.1211 139.339 59.1211 144.574V334.473C59.1211 335.175 59.2671 335.826 59.5231 336.409C59.5191 336.401 59.5141 336.393 59.5101 336.384Z" fill="white"/>
</g>
<path d="M98.5044 103.773C98.5044 104.843 97.7534 106.144 96.8264 106.679C95.8994 107.214 95.1484 106.78 95.1484 105.71C95.1484 104.64 95.8994 103.339 96.8264 102.804C97.7524 102.269 98.5044 102.703 98.5044 103.773Z" fill="#263238"/>
<path d="M104.747 100.169C104.747 101.239 103.996 102.54 103.069 103.075C102.142 103.61 101.391 103.176 101.391 102.106C101.391 101.036 102.142 99.7348 103.069 99.1998C103.995 98.6648 104.747 99.0988 104.747 100.169Z" fill="#263238"/>
<path d="M129.943 87.56L109.648 99.278C108.845 99.741 108.195 99.249 108.195 98.179C108.195 97.109 108.846 95.866 109.648 95.403L129.943 83.686C130.746 83.223 131.396 83.714 131.396 84.784C131.396 85.854 130.745 87.097 129.943 87.56Z" fill="#263238"/>
<path d="M126.506 309.992C127.718 309.992 128.502 311.278 128.502 313.267C128.502 316.394 126.546 320.164 124.231 321.501L114.524 327.106C114.006 327.405 113.519 327.557 113.078 327.557C111.866 327.557 111.082 326.272 111.082 324.282C111.082 321.155 113.038 317.385 115.353 316.048L125.06 310.444C125.579 310.144 126.065 309.992 126.506 309.992ZM126.506 309.163C125.936 309.163 125.307 309.344 124.646 309.725L114.939 315.329C112.351 316.823 110.254 320.831 110.254 324.281C110.254 326.85 111.417 328.385 113.079 328.385C113.649 328.385 114.278 328.204 114.939 327.823L124.646 322.219C127.234 320.725 129.331 316.717 129.331 313.267C129.331 310.698 128.168 309.163 126.506 309.163Z" fill="#263238"/>
<path d="M72.0039 76.0163V291.003C72.0039 294.897 73.4349 297.513 75.6219 298.372L75.6829 298.392L75.6929 298.402L84.9839 303.492L84.9329 295.224L83.9009 72.2953L74.0889 67.2773C72.7909 70.0583 72.0039 73.1443 72.0039 76.0163Z" fill="#E6E6E6"/>
<path d="M85.4889 304.341L75.4329 298.831C72.9409 297.802 71.5039 294.895 71.5039 291.004V76.0167C71.5039 73.1897 72.2609 70.0117 73.6359 67.0667L73.8559 66.5967L84.3999 71.9897L84.4009 72.2937L85.4329 295.223L85.4889 304.341ZM75.9339 297.966L84.4789 302.648L84.4329 295.229L83.4019 72.6037L74.3289 67.9627C73.1499 70.6417 72.5049 73.4837 72.5049 76.0177V291.005C72.5049 294.516 73.7389 297.097 75.8059 297.909L75.9339 297.969V297.966Z" fill="#E6E6E6"/>
<path d="M74.0898 67.2782L83.9018 72.2962L188.909 11.2072L195.92 7.12923L186.231 1.67123L185.955 1.50823V1.49824C184.412 0.568238 182.388 0.629236 180.16 1.91724L80.7638 59.3062C78.0858 60.8502 75.6948 63.8242 74.0898 67.2782Z" fill="#E0E0E0"/>
<path d="M83.9013 72.797C83.8233 72.797 83.7453 72.779 83.6743 72.742L73.8623 67.724C73.6233 67.601 73.5233 67.312 73.6363 67.068C75.3413 63.397 77.8483 60.41 80.5133 58.873L179.91 1.48397C182.21 0.154974 184.449 0.00597298 186.213 1.06997C186.239 1.08597 186.264 1.10397 186.286 1.12397L186.485 1.24297L196.165 6.69497C196.321 6.78297 196.419 6.94797 196.42 7.12697C196.421 7.30597 196.326 7.47297 196.171 7.56297L84.1523 72.73C84.0753 72.774 83.9883 72.797 83.9013 72.797ZM74.7513 67.055L83.8863 71.728L194.913 7.13697L185.7 1.93797C185.673 1.92197 185.648 1.90397 185.625 1.88397C184.197 1.06497 182.35 1.22997 180.41 2.34997L81.0133 59.739C78.6263 61.115 76.3613 63.766 74.7513 67.055Z" fill="#E0E0E0"/>
<path d="M81.6328 81.4237V295.44C81.6328 298.813 82.7058 301.235 84.4228 302.37L84.9848 302.677C86.4768 303.382 88.3478 303.229 90.3818 302.054L138.429 274.315L189.778 243.408C194.612 240.618 198.537 234.382 198.537 227.943V13.9367C198.537 10.6767 197.535 8.31572 195.92 7.12972C195.644 6.92572 195.348 6.75172 195.031 6.62872C193.569 6.00472 191.75 6.18972 189.778 7.32372L90.3818 65.6807C87.8058 67.1627 85.4958 69.0157 83.9018 72.2967C82.4918 75.1687 81.6328 78.4087 81.6328 81.4237Z" fill="#FAFAFA"/>
<path d="M189.775 243.406C169.322 255.607 116.114 287.363 89.7755 303.228C86.3265 305.305 81.9375 302.819 81.9375 298.793V78.7255C81.9375 73.6305 84.6385 68.9175 89.0335 66.3415L190.254 7.0195C193.703 4.9985 198.045 7.48551 198.045 11.4835V228.842C198.045 234.816 194.905 240.346 189.775 243.406Z" fill="#FAFAFA"/>
<path d="M189.524 242.975C173.467 252.554 157.414 262.138 141.365 271.731C131.864 277.41 122.364 283.093 112.869 288.781C108.53 291.38 104.193 293.981 99.8575 296.584C97.9605 297.723 96.0645 298.862 94.1685 300.002C92.4185 301.054 90.5535 302.552 88.6205 303.224C85.4115 304.339 82.5225 301.772 82.4375 298.604C82.4235 298.093 82.4375 297.58 82.4375 297.069C82.4375 294.594 82.4375 292.118 82.4375 289.643C82.4375 280.006 82.4375 270.369 82.4375 260.731C82.4375 246.932 82.4375 233.134 82.4375 219.335C82.4375 203.831 82.4375 188.327 82.4375 172.823C82.4375 158.223 82.4375 143.622 82.4375 129.022C82.4375 117.782 82.4375 106.543 82.4375 95.3028C82.4375 89.9288 82.4255 84.5548 82.4375 79.1808C82.4495 73.8938 85.0045 69.3068 89.5735 66.6058C91.8935 65.2348 94.2235 63.8808 96.5495 62.5178C107.449 56.1298 118.349 49.7418 129.25 43.3528C142.166 35.7838 155.081 28.2138 167.997 20.6448C175.346 16.3378 182.677 11.9978 190.045 7.72283C192.327 6.39883 195.2 6.52883 196.786 8.91783C197.43 9.88783 197.541 10.9658 197.545 12.0768C197.551 13.9948 197.545 15.9118 197.545 17.8298C197.545 26.6858 197.545 35.5428 197.545 44.3988C197.545 57.8088 197.545 71.2188 197.545 84.6288C197.545 100.023 197.545 115.417 197.545 130.811C197.545 145.663 197.545 160.514 197.545 175.366C197.545 187.005 197.545 198.645 197.545 210.284C197.545 216.191 197.545 222.098 197.545 228.005C197.545 234.149 194.859 239.697 189.524 242.975C188.977 243.311 189.478 244.177 190.029 243.838C195.593 240.419 198.545 234.592 198.545 228.141C198.545 226.094 198.545 224.047 198.545 222C198.545 212.83 198.545 203.66 198.545 194.49C198.545 180.759 198.545 167.028 198.545 153.297C198.545 137.575 198.545 121.853 198.545 106.131C198.545 91.2958 198.545 76.4608 198.545 61.6258C198.545 50.2238 198.545 38.8218 198.545 27.4198C198.545 22.1938 198.601 16.9658 198.545 11.7398C198.494 6.98483 193.704 4.45483 189.667 6.78383C187.23 8.18883 184.813 9.62883 182.386 11.0508C171.186 17.6148 159.985 24.1788 148.785 30.7428C135.753 38.3808 122.72 46.0188 109.688 53.6558C102.775 57.7078 95.8395 61.7238 88.9475 65.8108C84.1605 68.6498 81.4545 73.5828 81.4385 79.1188C81.4335 80.9188 81.4385 82.7178 81.4385 84.5178C81.4385 93.2628 81.4385 102.008 81.4385 110.754C81.4385 124.205 81.4385 137.657 81.4385 151.108C81.4385 166.763 81.4385 182.418 81.4385 198.073C81.4385 213.123 81.4385 228.172 81.4385 243.222C81.4385 255.188 81.4385 267.154 81.4385 279.12C81.4385 285.328 81.4385 291.536 81.4385 297.744C81.4385 298.088 81.4275 298.433 81.4385 298.777C81.5565 302.543 85.1795 305.426 88.8865 304.185C90.7745 303.553 92.5565 302.135 94.2565 301.113C96.1895 299.95 98.1235 298.789 100.057 297.627C104.38 295.032 108.705 292.439 113.03 289.847C131.941 278.517 150.866 267.211 169.794 255.911C176.538 251.885 183.283 247.86 190.028 243.836C190.581 243.509 190.079 242.644 189.524 242.975Z" fill="#EBEBEB"/>
<path d="M89.0335 66.3415L190.254 7.0195C193.703 4.9985 198.044 7.48551 198.044 11.4835V21.0315L198.014 21.0335L81.9375 88.0495V78.7245C81.9375 73.6305 84.6385 68.9175 89.0335 66.3415Z" fill="#EBEBEB"/>
<path d="M158.572 118.372C168.837 100.592 168.837 81.3747 158.573 75.4482C148.308 69.5216 131.665 79.1303 121.4 96.9098C111.134 114.689 111.134 133.907 121.399 139.834C131.663 145.76 148.306 136.151 158.572 118.372Z" fill="#7F468D"/>
<path opacity="0.5" d="M158.572 118.372C168.837 100.592 168.837 81.3747 158.573 75.4482C148.308 69.5216 131.665 79.1303 121.4 96.9098C111.134 114.689 111.134 133.907 121.399 139.834C131.663 145.76 148.306 136.151 158.572 118.372Z" fill="white"/>
<path d="M135.274 107.753C134.622 107.753 134.094 107.225 134.094 106.573V98.8002C134.094 95.3652 136.424 91.3292 139.399 89.6112C141.039 88.6642 142.642 88.5472 143.913 89.2812C145.184 90.0152 145.884 91.4622 145.884 93.3552V101.128C145.884 101.78 145.356 102.308 144.704 102.308C144.052 102.308 143.524 101.78 143.524 101.128V93.3552C143.524 92.3552 143.236 91.6152 142.733 91.3242C142.23 91.0342 141.445 91.1542 140.579 91.6542C138.343 92.9452 136.454 96.2172 136.454 98.7992V106.572C136.454 107.225 135.926 107.753 135.274 107.753Z" fill="#37474F"/>
<path d="M149.517 96.1168C149.059 95.8968 148.481 95.9388 147.851 96.3028L132.128 105.381C131.498 105.745 130.92 106.37 130.462 107.12C129.843 108.133 129.445 109.373 129.445 110.509V124.121C129.445 125.107 129.744 125.826 130.228 126.194C130.313 126.259 130.406 126.309 130.503 126.352C130.955 126.551 131.517 126.503 132.129 126.15L147.852 117.073C149.334 116.217 150.536 113.921 150.536 111.945V98.3328C150.535 97.1948 150.136 96.4138 149.517 96.1168Z" fill="#7F468D"/>
<path d="M141.777 110.301L143.292 114.659L137.965 117.734L139.299 112.352L139.487 111.59C138.587 111.616 137.965 110.92 137.965 109.695C137.965 109.226 138.054 108.732 138.214 108.244C138.641 106.952 139.563 105.698 140.629 105.083C142.1 104.234 143.293 104.92 143.293 106.621C143.293 107.846 142.668 109.262 141.768 110.277L141.777 110.301Z" fill="#455A64"/>
<path d="M139.299 112.352L139.487 111.59C138.587 111.616 137.965 110.92 137.965 109.695C137.965 109.226 138.054 108.732 138.214 108.244L141.777 110.302L143.292 114.66L139.299 112.352Z" fill="#37474F"/>
<path d="M178.766 157.966L101.219 202.739C98.0111 204.591 95.4102 202.625 95.4102 198.348V186.6C95.4102 182.323 98.0111 177.354 101.219 175.502L178.767 130.73C181.975 128.878 184.576 130.844 184.576 135.121V146.869C184.575 151.145 181.974 156.114 178.766 157.966Z" fill="#7F468D"/>
<path d="M115.176 174.443H113.676V186.877H115.176V174.443Z" fill="#FAFAFA"/>
<path d="M119.444 176.9L108.676 183.119L109.426 184.418L120.195 178.199L119.444 176.9Z" fill="#FAFAFA"/>
<path d="M110.984 177.82L110.234 179.119L117.849 183.516L118.599 182.217L110.984 177.82Z" fill="#FAFAFA"/>
<path d="M117.593 173.697L109.977 186.886L111.276 187.636L118.892 174.448L117.593 173.697Z" fill="#FAFAFA"/>
<path d="M140.746 160.516H139.246V172.951H140.746V160.516Z" fill="#FAFAFA"/>
<path d="M145.014 162.973L134.246 169.191L134.996 170.49L145.764 164.272L145.014 162.973Z" fill="#FAFAFA"/>
<path d="M136.559 163.894L135.809 165.193L143.422 169.589L144.172 168.29L136.559 163.894Z" fill="#FAFAFA"/>
<path d="M143.163 159.77L135.547 172.958L136.846 173.708L144.462 160.52L143.163 159.77Z" fill="#FAFAFA"/>
<path d="M166.312 146.59H164.812V159.024H166.312V146.59Z" fill="#FAFAFA"/>
<path d="M170.562 149.057L159.793 155.274L160.543 156.573L171.312 150.356L170.562 149.057Z" fill="#FAFAFA"/>
<path d="M162.125 149.969L161.375 151.268L168.989 155.664L169.739 154.365L162.125 149.969Z" fill="#FAFAFA"/>
<path d="M168.712 145.829L161.098 159.018L162.397 159.768L170.011 146.579L168.712 145.829Z" fill="#FAFAFA"/>
<path d="M181.073 174.153C182.111 174.153 182.575 175.704 182.575 177.241V188.989C182.575 192.561 180.373 196.851 177.766 198.355L100.219 243.127C99.7331 243.408 99.2811 243.556 98.9131 243.556C97.8751 243.556 97.4111 242.005 97.4111 240.468V228.72C97.4111 225.148 99.6132 220.858 102.22 219.354L179.768 174.582C180.252 174.301 180.704 174.153 181.073 174.153ZM181.072 172.153C180.365 172.153 179.585 172.377 178.766 172.85L101.219 217.622C98.0111 219.474 95.4102 224.443 95.4102 228.72V240.468C95.4102 243.653 96.8512 245.556 98.9122 245.556C99.6192 245.556 100.399 245.332 101.218 244.859L178.766 200.087C181.974 198.235 184.575 193.266 184.575 188.989V177.241C184.575 174.056 183.133 172.153 181.072 172.153Z" fill="#7F468D"/>
<path d="M124.075 220.981C123.511 221.306 123.025 221.455 122.618 221.426C122.213 221.393 121.902 221.197 121.683 220.837C121.464 220.474 121.354 219.958 121.354 219.291C121.354 218.639 121.464 218.004 121.683 217.386C121.902 216.768 122.21 216.206 122.607 215.702C123.007 215.196 123.476 214.788 124.014 214.478C124.376 214.269 124.712 214.142 125.024 214.096C125.338 214.047 125.612 214.088 125.845 214.22C126.081 214.351 126.264 214.58 126.395 214.909C126.526 215.234 126.591 215.666 126.591 216.205V216.687L121.961 219.361V218.272L125.16 216.426C125.16 216.173 125.112 215.976 125.017 215.836C124.922 215.696 124.79 215.62 124.621 215.607C124.454 215.591 124.26 215.646 124.039 215.774C123.808 215.908 123.603 216.088 123.425 216.314C123.249 216.537 123.111 216.78 123.011 217.044C122.911 217.305 122.86 217.561 122.857 217.813V218.848C122.857 219.161 122.907 219.403 123.007 219.573C123.11 219.742 123.254 219.835 123.439 219.851C123.625 219.868 123.845 219.803 124.1 219.655C124.269 219.558 124.423 219.441 124.564 219.305C124.704 219.169 124.824 219.017 124.924 218.85C125.024 218.682 125.1 218.503 125.153 218.314L126.559 217.609C126.488 218.04 126.342 218.465 126.12 218.885C125.901 219.3 125.618 219.688 125.271 220.051C124.925 220.41 124.527 220.72 124.075 220.981ZM129.105 214.292V217.953L127.584 218.831V212.499L129.033 211.662V212.779L129.098 212.742C129.219 212.304 129.422 211.895 129.708 211.516C129.994 211.134 130.34 210.825 130.747 210.59C131.128 210.371 131.46 210.275 131.743 210.304C132.026 210.333 132.246 210.48 132.403 210.747C132.56 211.011 132.639 211.389 132.639 211.881V215.912L131.118 216.79V213.072C131.121 212.683 131.035 212.43 130.861 212.314C130.687 212.194 130.448 212.222 130.144 212.398C129.939 212.516 129.758 212.672 129.601 212.864C129.446 213.055 129.325 213.273 129.237 213.519C129.151 213.761 129.107 214.019 129.105 214.292ZM136.754 207.204V208.524L133.452 210.43V209.111L136.754 207.204ZM134.202 207.161L135.723 206.283V212.186C135.723 212.348 135.744 212.462 135.787 212.528C135.83 212.592 135.889 212.619 135.965 212.611C136.044 212.601 136.134 212.567 136.237 212.508C136.308 212.467 136.379 212.418 136.451 212.364C136.522 212.306 136.577 212.262 136.615 212.232L136.854 213.4C136.778 213.472 136.671 213.565 136.533 213.681C136.395 213.799 136.227 213.919 136.03 214.041C135.663 214.269 135.342 214.399 135.066 214.429C134.792 214.458 134.579 214.38 134.427 214.196C134.274 214.012 134.199 213.712 134.202 213.295V207.161ZM140.185 211.679C139.621 212.005 139.135 212.153 138.728 212.124C138.324 212.091 138.012 211.895 137.793 211.535C137.574 211.172 137.465 210.657 137.465 209.989C137.465 209.338 137.574 208.703 137.793 208.085C138.012 207.466 138.32 206.905 138.718 206.401C139.118 205.895 139.586 205.487 140.124 205.176C140.486 204.967 140.823 204.84 141.135 204.795C141.449 204.745 141.722 204.787 141.956 204.919C142.191 205.049 142.375 205.279 142.506 205.607C142.636 205.933 142.702 206.365 142.702 206.903V207.386L138.072 210.059V208.971L141.27 207.124C141.27 206.871 141.223 206.675 141.128 206.534C141.032 206.394 140.9 206.318 140.731 206.306C140.565 206.289 140.371 206.345 140.149 206.473C139.918 206.606 139.714 206.786 139.535 207.013C139.359 207.235 139.221 207.479 139.121 207.742C139.021 208.003 138.97 208.26 138.968 208.511V209.546C138.968 209.859 139.018 210.101 139.118 210.271C139.22 210.44 139.364 210.533 139.55 210.55C139.735 210.566 139.955 210.501 140.21 210.354C140.379 210.256 140.534 210.14 140.674 210.003C140.815 209.867 140.935 209.716 141.035 209.548C141.135 209.38 141.211 209.202 141.263 209.012L142.67 208.307C142.598 208.739 142.452 209.164 142.231 209.583C142.012 209.998 141.728 210.387 141.381 210.75C141.036 211.108 140.637 211.418 140.185 211.679ZM143.694 209.529V203.197L145.169 202.346V203.451L145.226 203.418C145.326 202.967 145.494 202.574 145.729 202.237C145.965 201.898 146.236 201.639 146.543 201.462C146.619 201.418 146.701 201.376 146.789 201.336C146.878 201.296 146.955 201.267 147.022 201.248V202.806C146.95 202.822 146.851 202.857 146.725 202.911C146.599 202.965 146.484 203.022 146.379 203.082C146.155 203.211 145.955 203.383 145.779 203.597C145.605 203.808 145.467 204.041 145.365 204.298C145.265 204.554 145.215 204.811 145.215 205.069V208.651L143.694 209.529Z" fill="#7F468D"/>
<path d="M295.211 40.6193C295.211 42.0653 296.246 43.8243 297.522 44.5473C298.798 45.2703 299.833 44.6843 299.833 43.2383C299.833 41.7923 298.798 40.0333 297.522 39.3103C296.246 38.5863 295.211 39.1723 295.211 40.6193Z" fill="#455A64"/>
<path d="M264.238 49.9346C262.467 49.9346 260.511 49.3576 258.492 48.2126L251.16 44.0586C250.92 43.9226 250.835 43.6176 250.971 43.3766C251.107 43.1356 251.414 43.0526 251.652 43.1886L258.984 47.3426C262.146 49.1346 265.084 49.4226 267.256 48.1566C269.381 46.9176 270.552 44.3056 270.552 40.8016C270.552 36.9266 271.899 34.0066 274.345 32.5816C276.838 31.1286 280.129 31.4166 283.612 33.3896L295.461 40.1026C295.701 40.2386 295.786 40.5436 295.649 40.7846C295.512 41.0246 295.205 41.1076 294.968 40.9736L283.119 34.2606C279.957 32.4696 277.02 32.1806 274.848 33.4466C272.722 34.6856 271.551 37.2976 271.551 40.8026C271.551 44.6776 270.204 47.5966 267.758 49.0216C266.712 49.6306 265.523 49.9346 264.238 49.9346Z" fill="#455A64"/>
<path d="M248.133 41.8155C248.133 42.9855 248.97 44.4075 250.002 44.9925C251.034 45.5775 251.871 45.1035 251.871 43.9335C251.871 42.7645 251.034 41.3415 250.002 40.7575C248.97 40.1725 248.133 40.6465 248.133 41.8155Z" fill="#455A64"/>
<path d="M295.211 128.026C295.211 129.472 296.246 131.231 297.522 131.954C298.798 132.677 299.833 132.091 299.833 130.645C299.833 129.199 298.798 127.44 297.522 126.717C296.246 125.993 295.211 126.58 295.211 128.026Z" fill="#455A64"/>
<path d="M295.298 129.121C295.214 129.121 295.129 129.1 295.052 129.056L283.203 122.343C276.273 118.416 270.637 108.832 270.637 100.977C270.637 93.4439 265.227 84.2489 258.577 80.4809L251.156 76.2759C250.916 76.1399 250.831 75.8349 250.967 75.5939C251.103 75.3529 251.41 75.2689 251.648 75.4049L259.069 79.6099C265.999 83.5369 271.636 93.1209 271.636 100.976C271.636 108.509 277.045 117.703 283.695 121.472L295.544 128.185C295.784 128.321 295.869 128.626 295.732 128.867C295.641 129.03 295.472 129.121 295.298 129.121Z" fill="#455A64"/>
<path d="M248.133 73.8506C248.133 75.0196 248.97 76.4426 250.002 77.0276C251.034 77.6126 251.871 77.1386 251.871 75.9686C251.871 74.7986 251.034 73.3766 250.002 72.7916C248.97 72.2066 248.133 72.6806 248.133 73.8506Z" fill="#455A64"/>
<path d="M366.414 31.1939L317.435 3.45286C316.032 2.64286 314.771 2.70387 313.877 3.44587L309.645 6.37186L312.531 9.93986V61.5649C312.531 65.1759 314.726 69.3709 317.435 70.9349L365.198 97.9739L365.423 101.819L369.882 98.7629C370.769 98.0919 371.318 96.7739 371.318 94.9689V40.5629C371.317 36.9529 369.122 32.7579 366.414 31.1939Z" fill="#429EBD"/>
<path opacity="0.3" d="M366.414 31.1939L317.435 3.45286C316.032 2.64286 314.771 2.70387 313.877 3.44587L309.645 6.37186L312.531 9.93986V61.5649C312.531 65.1759 314.726 69.3709 317.435 70.9349L365.198 97.9739L365.423 101.819L369.882 98.7629C370.769 98.0919 371.318 96.7739 371.318 94.9689V40.5629C371.317 36.9529 369.122 32.7579 366.414 31.1939Z" fill="black"/>
<path d="M362.25 101.543L313.271 73.8021C310.563 72.2381 308.367 68.0431 308.367 64.4321V10.0261C308.367 6.41512 310.563 4.75512 313.271 6.31912L362.25 34.0601C364.958 35.6241 367.154 39.8191 367.154 43.4301V97.8361C367.154 101.447 364.958 103.107 362.25 101.543Z" fill="#429EBD"/>
<path d="M366.414 123.846L317.435 96.1052C316.032 95.2952 314.771 95.3562 313.877 96.0982L309.645 99.0242L312.531 102.592V154.218C312.531 157.829 314.726 162.024 317.435 163.588L365.198 190.627L365.423 194.472L369.882 191.416C370.769 190.745 371.318 189.427 371.318 187.622V133.216C371.317 129.604 369.122 125.409 366.414 123.846Z" fill="#429EBD"/>
<path opacity="0.3" d="M366.414 123.846L317.435 96.1052C316.032 95.2952 314.771 95.3562 313.877 96.0982L309.645 99.0242L312.531 102.592V154.218C312.531 157.829 314.726 162.024 317.435 163.588L365.198 190.627L365.423 194.472L369.882 191.416C370.769 190.745 371.318 189.427 371.318 187.622V133.216C371.317 129.604 369.122 125.409 366.414 123.846Z" fill="black"/>
<path d="M362.25 194.195L313.271 166.454C310.563 164.891 308.367 160.696 308.367 157.084V102.678C308.367 99.0675 310.563 97.4075 313.271 98.9715L362.25 126.712C364.958 128.276 367.154 132.471 367.154 136.082V190.488C367.154 194.099 364.958 195.758 362.25 194.195Z" fill="#429EBD"/>
<path d="M319.27 117.858C318.994 117.858 318.77 117.634 318.77 117.358V113.985C318.77 113.303 319.125 112.69 319.719 112.343C320.326 111.989 321.055 111.984 321.666 112.331L325.201 114.334C325.441 114.47 325.526 114.775 325.389 115.016C325.252 115.257 324.945 115.339 324.708 115.205L321.173 113.202C320.873 113.033 320.52 113.035 320.222 113.208C319.934 113.376 319.769 113.659 319.769 113.986V117.359C319.77 117.634 319.547 117.858 319.27 117.858Z" fill="white"/>
<path d="M324.956 164.235C324.872 164.235 324.787 164.214 324.71 164.17L321.407 162.298C319.78 161.377 318.77 159.658 318.77 157.812V154.703C318.77 154.427 318.994 154.203 319.27 154.203C319.546 154.203 319.77 154.427 319.77 154.703V157.812C319.77 159.298 320.585 160.684 321.899 161.428L325.202 163.3C325.442 163.436 325.527 163.741 325.39 163.982C325.299 164.143 325.13 164.235 324.956 164.235Z" fill="white"/>
<path d="M354.818 180.941C354.488 180.941 354.157 180.856 353.855 180.684L350.32 178.681C350.08 178.545 349.995 178.24 350.131 177.999C350.267 177.758 350.573 177.676 350.812 177.81L354.347 179.813C354.648 179.982 355.003 179.98 355.298 179.807C355.586 179.64 355.751 179.356 355.751 179.03V175.657C355.751 175.381 355.975 175.157 356.251 175.157C356.527 175.157 356.751 175.381 356.751 175.657V179.03C356.751 179.711 356.397 180.325 355.802 180.671C355.495 180.851 355.157 180.941 354.818 180.941Z" fill="white"/>
<path d="M356.252 138.812C355.976 138.812 355.752 138.588 355.752 138.312V135.203C355.752 133.717 354.937 132.331 353.623 131.587L350.32 129.715C350.08 129.579 349.995 129.274 350.131 129.033C350.267 128.793 350.573 128.708 350.812 128.844L354.115 130.716C355.742 131.637 356.752 133.356 356.752 135.202V138.311C356.752 138.589 356.528 138.812 356.252 138.812Z" fill="white"/>
<path d="M323.705 134.681C323.78 140.592 324.736 146.285 326.118 151.485C329.926 165.817 344.911 174.632 349.03 164.922C350.671 161.054 351.82 156.115 351.82 149.869C351.82 141.069 345.525 130.369 337.759 125.969C329.843 121.484 323.59 125.647 323.705 134.681Z" fill="white"/>
<path d="M337.261 142.69V152.112L333.168 149.048L337.261 142.69Z" fill="#E0E0E0"/>
<path d="M329.645 137.064C329.645 137.908 330.249 138.934 330.994 139.357C331.739 139.779 332.343 139.437 332.343 138.593C332.343 137.749 331.739 136.723 330.994 136.3C330.249 135.878 329.645 136.22 329.645 137.064Z" fill="#E0E0E0"/>
<path d="M342.172 144.238C342.172 145.082 342.776 146.108 343.521 146.531C344.266 146.953 344.87 146.611 344.87 145.767C344.87 144.923 344.266 143.897 343.521 143.474C342.775 143.052 342.172 143.394 342.172 144.238Z" fill="#E0E0E0"/>
<path d="M335.91 156.723L340.481 155.948C340.481 155.948 339.507 160.832 335.91 156.723Z" fill="#E0E0E0"/>
<path d="M345.609 53.0559L344.11 52.1795V45.5569C344.11 40.6494 341.149 34.9282 337.494 32.8C333.851 30.6717 330.89 32.9377 330.89 37.8452V44.4678L329.391 43.5914C328.066 42.8152 327 43.6415 327 45.4067V63.647C327 64.3856 327.198 65.2119 327.52 65.9505C327.842 66.6892 328.313 67.3652 328.846 67.8534C334.545 72.9487 340.455 76.3914 346.154 77.9438C347.232 78.2317 348 77.393 348 75.8907V57.6504C348 55.8852 346.935 53.8195 345.609 53.0559ZM333.604 39.4351C333.604 36.5307 335.35 35.2036 337.494 36.4555C339.65 37.7075 341.396 41.0876 341.396 43.9795V50.5896L333.604 46.0452V39.4351ZM343.763 57.713L335.722 67.1774C335.45 67.4904 335.053 67.6782 334.632 67.6782C334.57 67.6782 334.508 67.6782 334.446 67.6656C333.963 67.603 333.542 67.2901 333.331 66.8394L331.027 61.9319C330.692 61.2058 331.002 60.342 331.72 60.004C332.427 59.6534 333.281 59.9664 333.628 60.6925L334.991 63.5844L341.582 55.8226C342.103 55.2217 343.007 55.1465 343.614 55.6723C344.209 56.1856 344.283 57.0995 343.763 57.713Z" fill="#FAFAFA"/>
<path d="M262.199 165.514C262.199 165.514 269.488 165.023 273.623 175.154C276.193 181.452 279.323 191.184 281.323 197.648C282.566 201.664 281.283 206.031 278.063 208.733L265.353 219.397L260.805 211.127C260.805 211.127 265.708 204.585 269.488 201.203L260.805 175.153L262.199 165.514Z" fill="#FFBDA7"/>
<path d="M265.558 196.447C265.558 196.447 277.136 197.978 280.03 189.046C280.03 189.046 275.068 175.979 272.794 171.638C270.52 167.296 265.866 164.143 262.197 165.513C258.528 166.883 265.558 196.447 265.558 196.447Z" fill="#BA68C8"/>
<path opacity="0.4" d="M265.558 196.447C265.558 196.447 277.136 197.978 280.03 189.046C280.03 189.046 275.068 175.979 272.794 171.638C270.52 167.296 265.866 164.143 262.197 165.513C258.528 166.883 265.558 196.447 265.558 196.447Z" fill="#7F468D"/>
<path d="M257.832 313.709C257.832 313.709 252.327 308.995 250.191 308.774C248.055 308.553 244.351 312.215 247.479 318.57C248.349 320.338 251.885 322.253 254.095 325.641C256.305 329.029 258.293 331.576 261.682 331.113C265.07 330.65 265.512 328.735 265.291 326.525C265.07 324.315 264.076 320.522 264.076 320.522L257.832 313.709Z" fill="#37474F"/>
<path d="M261.863 330.099C258.371 330.576 256.321 327.951 254.043 324.459C251.765 320.967 248.121 318.993 247.224 317.17C246.829 316.369 246.543 315.61 246.344 314.894C246.471 315.992 246.814 317.216 247.48 318.57C248.35 320.338 251.886 322.253 254.096 325.641C256.306 329.029 258.294 331.576 261.683 331.113C264.278 330.758 265.139 329.549 265.303 328.011C264.854 329.048 263.869 329.825 261.863 330.099Z" fill="#263238"/>
<path d="M254.897 319.767C254.812 319.767 254.726 319.746 254.646 319.704C254.386 319.565 254.288 319.242 254.426 318.982C254.497 318.848 256.215 315.693 259.602 314.925C259.895 314.858 260.176 315.04 260.242 315.328C260.307 315.616 260.127 315.902 259.839 315.967C256.938 316.626 255.385 319.457 255.369 319.486C255.273 319.664 255.089 319.767 254.897 319.767Z" fill="#EBEBEB"/>
<path d="M252.842 317.872C252.757 317.872 252.671 317.852 252.591 317.809C252.331 317.67 252.233 317.348 252.371 317.088C252.442 316.954 254.159 313.798 257.547 313.03C257.839 312.963 258.121 313.145 258.187 313.433C258.252 313.721 258.072 314.007 257.784 314.072C254.882 314.731 253.33 317.562 253.314 317.591C253.217 317.769 253.033 317.872 252.842 317.872Z" fill="#EBEBEB"/>
<path d="M250.491 315.978C250.406 315.978 250.32 315.957 250.24 315.915C249.98 315.776 249.882 315.453 250.02 315.193C250.091 315.059 251.808 311.905 255.195 311.136C255.486 311.068 255.769 311.251 255.835 311.539C255.901 311.827 255.72 312.113 255.432 312.178C252.531 312.837 250.979 315.668 250.963 315.696C250.867 315.875 250.682 315.978 250.491 315.978Z" fill="#EBEBEB"/>
<path d="M228.55 329.161C228.55 329.161 221.176 326.769 218.976 327.429C216.776 328.089 214.624 333.228 220.325 338.217C221.911 339.605 226.19 340.043 229.764 342.48C233.339 344.918 236.349 346.615 239.505 344.765C242.661 342.915 242.403 340.787 241.841 338.479C241.126 335.539 240.551 333.403 240.551 333.403L228.55 329.161Z" fill="#37474F"/>
<path d="M239.269 343.689C236.017 345.596 232.913 343.847 229.229 341.334C225.544 338.821 221.134 338.37 219.499 336.94C218.78 336.311 218.186 335.68 217.695 335.055C218.272 336.087 219.113 337.155 220.328 338.218C221.914 339.606 226.193 340.044 229.767 342.481C233.342 344.919 236.352 346.616 239.508 344.766C241.925 343.349 242.278 341.801 241.808 340.214C241.791 341.42 241.138 342.593 239.269 343.689Z" fill="#263238"/>
<path d="M226.793 335.968C226.775 335.968 226.758 335.967 226.74 335.965C226.447 335.937 226.232 335.676 226.26 335.383C226.276 335.222 226.672 331.418 229.688 329.277C229.927 329.106 230.26 329.162 230.433 329.403C230.604 329.644 230.547 329.977 230.307 330.148C227.697 332.002 227.328 335.451 227.325 335.486C227.297 335.762 227.064 335.968 226.793 335.968Z" fill="#EBEBEB"/>
<path d="M229.836 336.965C229.818 336.965 229.801 336.964 229.783 336.962C229.489 336.934 229.274 336.673 229.303 336.38C229.319 336.219 229.716 332.415 232.731 330.274C232.97 330.103 233.304 330.159 233.476 330.4C233.647 330.641 233.59 330.974 233.35 331.145C230.741 332.999 230.37 336.448 230.367 336.483C230.34 336.758 230.107 336.965 229.836 336.965Z" fill="#EBEBEB"/>
<path d="M223.985 334.942C223.967 334.942 223.95 334.941 223.932 334.939C223.639 334.911 223.424 334.65 223.452 334.357C223.468 334.196 223.864 330.392 226.88 328.251C227.119 328.08 227.453 328.136 227.625 328.377C227.796 328.618 227.739 328.951 227.499 329.122C224.889 330.976 224.52 334.425 224.517 334.46C224.489 334.736 224.256 334.942 223.985 334.942Z" fill="#EBEBEB"/>
<path d="M264.42 315.115C265.08 307.813 266.511 296.373 267.106 291.024C268.169 281.468 267.195 274.179 266.53 270.713C266.225 269.126 266.14 267.521 266.3 265.913C267.746 251.371 268.695 227.804 267.893 222.624L247.48 226.943C247.48 226.943 249.979 260.009 251.075 271.008C252.178 282.08 256.282 315.21 256.282 315.21C257.988 316.215 261.087 317.314 264.42 315.115Z" fill="#455A64"/>
<path d="M261.479 322.622C263.247 322.346 264.075 320.523 264.075 320.523C264.075 319.372 264.209 317.451 264.42 315.115C261.087 317.314 257.989 316.215 256.281 315.21L257.004 321.352C257.834 322.291 259.712 322.899 261.479 322.622Z" fill="#FFBDA7"/>
<path d="M241.457 327.944C242.29 316.894 243.898 295.476 244.113 292.113C244.329 288.719 243.953 284.046 243.409 280.999C243.055 279.016 243.084 276.987 243.442 275.005L252.413 225.231L227.746 224.87L226.132 277.015C226.111 277.689 226.137 278.364 226.209 279.034L231.441 327.634C231.441 327.634 236.542 331.913 241.457 327.944Z" fill="#455A64"/>
<path d="M237.341 337.071C239.115 336.905 240.71 335.407 240.958 334.53C240.958 334.53 241.156 331.893 241.454 327.945C236.54 331.914 231.438 327.635 231.438 327.635L232.223 334.923C232.223 334.923 233.381 337.442 237.341 337.071Z" fill="#FFBDA7"/>
<path d="M239.142 168.828L233.323 170.817L227.062 200.427L227.365 226.683C227.365 226.683 231.837 230.246 249.299 230.246C259.103 230.246 265.483 226.554 267.891 222.624L266.322 206.762C266.322 206.762 267.891 191.132 267.891 183.405C267.891 175.679 268.237 169.344 262.197 165.514L256.819 165.956L239.142 168.828Z" fill="#BA68C8"/>
<path d="M239.142 168.828L233.323 170.817L227.062 200.427L227.365 226.683C227.365 226.683 231.837 230.246 249.299 230.246C259.103 230.246 265.483 226.554 267.891 222.624L266.322 206.762C266.322 206.762 267.891 191.132 267.891 183.405C267.891 175.679 268.237 169.344 262.197 165.514L256.819 165.956L239.142 168.828Z" fill="#263238"/>
<path d="M232.824 143.383L229.91 149.15C229.73 149.506 229.908 149.939 230.287 150.065L233.745 151.217L232.824 143.383Z" fill="#F28F8F"/>
<path d="M236.86 133.709C236.86 133.709 232.441 136.09 232.441 149.752C232.441 157.265 232.957 162.052 236.86 161.758C240.764 161.463 251.996 159.99 251.996 159.99V133.709H236.86Z" fill="#FFBDA7"/>
<path d="M236.859 161.756C238.231 161.653 240.51 161.403 242.886 161.123V159.73C240.7 160.851 236.8 161.637 236.207 161.752C236.414 161.77 236.629 161.774 236.859 161.756Z" fill="#F28F8F"/>
<path d="M242.215 159.149V167.724H253.945V155.675L242.215 159.149Z" fill="#FFBDA7"/>
<path d="M242.216 164.458C242.216 164.458 246.433 165.956 249.821 165.367C253.209 164.778 253.946 162.715 253.946 162.715C253.946 162.715 255.051 162.631 256.819 165.956C256.819 165.956 254.748 170.094 249.969 170.375C243.708 170.743 239.141 168.828 239.141 168.828C239.141 168.828 240.771 164.032 242.216 164.458Z" fill="#BA68C8"/>
<path opacity="0.4" d="M242.216 164.458C242.216 164.458 246.433 165.956 249.821 165.367C253.209 164.778 253.946 162.715 253.946 162.715C253.946 162.715 255.051 162.631 256.819 165.956C256.819 165.956 254.748 170.094 249.969 170.375C243.708 170.743 239.141 168.828 239.141 168.828C239.141 168.828 240.771 164.032 242.216 164.458Z" fill="#7F468D"/>
<path d="M216.051 189.895L212.901 194.742C212.901 194.742 205.251 191.331 199.876 189.263C194.501 187.196 191.296 184.324 191.296 184.324C191.296 184.324 191.71 180.22 192.33 178.126C192.95 176.032 193.157 174.274 191.296 175.205C189.435 176.135 188.195 179.753 188.092 180.167C188.092 180.167 177.341 169.365 175.997 169.597C174.653 169.83 174.964 171.457 177.858 174.791C180.751 178.126 180.751 178.126 180.751 178.126C180.751 178.126 174.157 181.924 175.232 186.059C176.307 190.194 184.99 192.055 184.99 192.055C184.99 192.055 210.414 211.592 216.051 208.078C221.687 204.563 229.647 194.433 229.647 194.433L216.051 189.895Z" fill="#FFBDA7"/>
<path d="M235.632 170.062C235.632 170.062 240.325 173.922 237.267 181.9C234.208 189.878 226.402 199.517 226.402 199.517C226.402 199.517 218.216 196.973 215.059 190.361L225.378 174.214C226.869 171.881 229.371 170.398 232.134 170.216C233.107 170.153 234.265 170.098 235.632 170.062Z" fill="#BA68C8"/>
<path opacity="0.4" d="M235.632 170.062C235.632 170.062 240.325 173.922 237.267 181.9C234.208 189.878 226.402 199.517 226.402 199.517C226.402 199.517 218.216 196.973 215.059 190.361L225.378 174.214C226.869 171.881 229.371 170.398 232.134 170.216C233.107 170.153 234.265 170.098 235.632 170.062Z" fill="#7F468D"/>
<path d="M235.165 125.666C235.165 125.666 230.529 125.05 229.346 128.244C228.609 130.233 230.967 131.78 230.967 131.78C230.967 131.78 227.976 134.595 232.44 135.463C232.44 135.463 232.072 139.293 236.049 138.777C236.049 138.777 235.533 141.814 239.437 142.874C239.437 142.874 237.464 148.132 241.176 148.205H244.651L243.25 152.256C243.25 152.256 245.845 158.517 253.948 158.517C253.948 158.517 256.011 154.245 256.968 152.993C257.926 151.741 262.934 145.333 262.934 140.251C262.934 135.169 260.979 132.158 258.274 131.49C258.274 131.49 257.116 128.687 254.39 126.845C251.665 125.004 245.92 123.361 242.679 125.619C242.679 125.619 239.806 121.852 237.818 121.852C235.828 121.851 235.165 123.898 235.165 125.666Z" fill="#263238"/>
<path d="M241.178 148.205C241.178 148.205 240.839 142.874 245.332 142.874C249.825 142.874 248.759 152.256 243.252 152.256L241.178 148.205Z" fill="#FFBDA7"/>
</svg>
